<svg version="1.1" id="Layer_1" xmlns="http://www.w3.org/2000/svg" xmlns:xlink="http://www.w3.org/1999/xlink" x="0px" y="0px"
	 width="100%" viewBox="0 0 1920 768" enable-background="new 0 0 1920 768" xml:space="preserve">
<path fill="#FEFFFF" opacity="1.000000" stroke="none" 
	d="
M1298.000000,769.000000 
	C865.333313,769.000000 433.166656,769.000000 1.000000,769.000000 
	C1.000000,513.000000 1.000000,257.000000 1.000000,1.000000 
	C641.000000,1.000000 1281.000000,1.000000 1921.000000,1.000000 
	C1921.000000,257.000000 1921.000000,513.000000 1921.000000,769.000000 
	C1713.500000,769.000000 1506.000000,769.000000 1298.000000,769.000000 
M611.887878,385.078613 
	C611.887878,385.078613 611.698730,385.100250 611.327698,384.633270 
	C610.770691,384.392487 610.214050,383.942322 609.656616,383.941345 
	C593.602051,383.913300 577.547302,383.907410 561.493042,383.988281 
	C560.343750,383.994080 559.197815,384.688354 557.779236,385.812897 
	C557.765625,405.643433 557.601501,425.475861 557.854858,445.302979 
	C557.911194,449.711365 556.332764,451.778442 552.506165,453.509552 
	C539.479187,459.402802 525.700439,461.554504 511.637268,461.630798 
	C496.589508,461.712402 482.670654,457.500488 470.700104,448.029816 
	C443.638367,426.619537 434.019440,385.384674 448.578430,352.785828 
	C469.630371,305.648804 523.574829,300.781036 555.988403,320.831512 
	C562.590881,324.915680 568.735107,329.740601 575.289246,334.364136 
	C576.104370,333.376312 577.010437,332.427582 577.747559,331.361969 
	C585.516724,320.129608 593.086914,308.753601 601.111328,297.707336 
	C603.580688,294.308075 602.682739,292.850555 599.907288,290.540863 
	C576.402405,270.980591 549.379211,260.735077 518.886597,259.443390 
	C493.681580,258.375702 469.673492,262.935852 448.029114,276.247620 
	C404.985870,302.720184 384.043732,341.493347 386.121826,392.024902 
	C388.107056,440.298615 410.894287,476.474976 453.984161,497.785919 
	C494.136200,517.643860 535.630432,515.212219 576.308350,497.757233 
	C589.022827,492.301422 600.205383,484.201599 609.875854,473.229553 
	C610.552246,472.397430 611.228638,471.565338 612.268982,470.054779 
	C612.304565,442.419006 612.343140,414.783203 612.356018,387.147430 
	C612.356262,386.520935 612.064453,385.894348 611.887878,385.078613 
M1378.422852,459.687256 
	C1347.938354,459.668091 1317.453857,459.679657 1286.969727,459.557373 
	C1285.034790,459.549622 1283.104004,458.501129 1281.410034,457.032684 
	C1281.422485,394.517242 1281.436768,332.001801 1281.433105,269.486359 
	C1281.432983,268.335510 1281.218994,267.184692 1281.356445,265.962372 
	C1281.356445,265.962372 1281.338501,265.589813 1281.338501,265.589813 
	C1281.338501,265.589813 1281.057007,265.619171 1280.617310,265.107117 
	C1280.393066,265.126068 1280.168945,265.145050 1279.040161,264.930054 
	C1261.802368,264.930054 1244.564453,264.930054 1227.246948,264.930054 
	C1227.156494,266.740326 1227.064209,267.725739 1227.063965,268.711121 
	C1227.053223,347.192413 1227.045898,425.673676 1227.078247,504.154968 
	C1227.078735,505.363800 1227.573975,506.572449 1228.781250,508.034393 
	C1263.227295,508.047546 1297.673218,508.083588 1332.119263,508.063782 
	C1348.420654,508.054413 1364.722046,507.938232 1381.844238,507.593262 
	C1381.927856,492.566956 1382.059204,477.540344 1381.972412,462.515015 
	C1381.967407,461.648438 1380.188354,460.792084 1378.422852,459.687256 
M1579.485840,506.000336 
	C1579.564209,505.668365 1579.476685,505.388153 1579.478760,504.285706 
	C1579.399902,501.874908 1579.321045,499.464081 1579.562866,496.164185 
	C1579.562866,484.087311 1579.562866,472.010437 1579.562866,459.565857 
	C1577.257446,459.565857 1575.626709,459.566101 1573.996094,459.565857 
	C1544.215942,459.561249 1514.435669,459.567230 1484.655518,459.527710 
	C1482.685181,459.525085 1480.715332,459.175415 1478.830444,458.059570 
	C1478.825928,396.021149 1478.825073,333.982727 1478.800049,271.944305 
	C1478.799316,269.967682 1478.549072,267.991180 1478.378174,265.318573 
	C1466.590210,265.142212 1454.802490,264.935974 1443.014038,264.801819 
	C1436.882324,264.732056 1430.749268,264.789551 1424.449951,264.789551 
	C1424.344849,266.617279 1424.203979,267.924347 1424.203735,269.231445 
	C1424.190552,347.354004 1424.184692,425.476562 1424.219727,503.599121 
	C1424.220337,504.984375 1424.723877,506.369415 1425.902222,508.029572 
	C1475.747681,508.042511 1525.593140,508.067841 1575.438477,507.998169 
	C1576.707397,507.996399 1577.974731,506.950134 1579.485840,506.000336 
M340.007874,265.993652 
	C340.007874,265.993652 340.010376,265.971893 339.690338,265.144501 
	C321.952972,265.144501 304.215576,265.144501 286.179596,265.144501 
	C286.093872,267.075012 285.958954,268.698456 285.958679,270.321899 
	C285.946167,344.888885 285.943542,419.455872 285.956024,494.022858 
	C285.956299,495.676147 286.144867,497.329468 286.064941,499.865234 
	C286.125031,502.261841 286.185089,504.658447 286.087372,507.531342 
	C286.375458,507.623901 286.663513,507.716461 287.867401,508.051422 
	C303.946899,508.058685 320.026520,508.089600 336.105774,508.029724 
	C337.434479,508.024780 338.760895,507.404144 340.382385,506.311523 
	C340.401550,427.182312 340.422241,348.053101 340.422394,268.923889 
	C340.422394,267.952240 340.158569,266.980621 340.007874,265.993652 
M660.496704,266.159210 
	C660.462158,266.308441 660.367310,266.475647 660.405334,266.603210 
	C660.488525,266.881531 660.639282,267.139648 660.563477,268.209442 
	C660.552734,333.843903 660.529114,399.478363 660.543396,465.112823 
	C660.545898,476.598297 660.708069,488.083710 660.471802,499.979340 
	C660.577637,500.462006 660.683411,500.944641 660.576965,502.034668 
	C660.645203,502.880219 660.713440,503.725769 660.455383,504.983917 
	C660.550964,505.472076 660.646545,505.960236 660.754211,507.313446 
	C661.165710,507.549042 661.577637,507.991425 661.988647,507.990540 
	C679.329773,507.953583 696.670898,507.877014 714.643494,507.746948 
	C714.650024,505.860992 714.656494,503.975067 714.854858,501.211029 
	C714.783813,498.830292 714.712769,496.449554 714.940063,493.165680 
	C714.967529,418.230957 714.997131,343.296234 715.002075,268.361511 
	C715.002197,267.274200 714.695068,266.186890 714.486694,264.803009 
	C696.906433,264.803009 679.610229,264.794525 662.314087,264.847137 
	C661.832397,264.848602 661.352661,265.504181 660.888245,265.883728 
	C660.888245,265.883728 660.865479,265.891083 660.496704,266.159210 
M1142.946533,508.044098 
	C1161.321899,507.973175 1179.697144,507.902283 1198.748901,507.664307 
	C1195.126953,498.938660 1191.607056,490.169037 1187.866821,481.494324 
	C1157.281006,410.553619 1126.632568,339.639954 1096.110962,268.671692 
	C1094.748901,265.504761 1092.988525,264.680145 1089.719849,264.720947 
	C1075.225098,264.901917 1060.725220,264.923981 1046.231201,264.715637 
	C1042.679932,264.664581 1041.055054,265.822540 1039.654419,269.080963 
	C1005.692749,348.091217 971.607117,427.048157 937.121460,506.787750 
	C937.691467,507.211029 938.261902,508.004578 938.831421,508.003906 
	C957.207642,507.982300 975.583801,507.884033 994.626587,507.738037 
	C1001.661316,491.607483 1008.755127,475.502228 1015.672424,459.321472 
	C1016.820496,456.635986 1018.274170,455.628326 1021.216980,455.638641 
	C1052.496582,455.748230 1083.776611,455.758057 1115.056274,455.682129 
	C1117.813110,455.675446 1119.083130,456.570129 1120.163696,459.142639 
	C1126.599731,474.466614 1133.246948,489.702118 1139.883911,504.940948 
	C1140.351196,506.013794 1141.305908,506.874207 1142.946533,508.044098 
M21.890060,508.035889 
	C51.590153,507.976227 81.290245,507.916565 111.906960,508.013367 
	C134.387497,507.015717 156.343521,503.840240 177.053452,494.185638 
	C198.197250,484.328766 214.300812,469.399750 225.233978,448.806030 
	C234.643448,431.082275 238.655304,411.998444 239.296478,392.159210 
	C240.645020,350.434082 229.783829,313.857635 194.040833,288.330017 
	C189.181213,284.859314 183.419128,282.652191 178.025726,279.967651 
	C178.025726,279.967651 178.129120,279.910156 177.859467,279.248230 
	C176.117081,278.381500 174.428513,277.377625 172.623871,276.669556 
	C157.076385,270.568970 140.953201,266.899384 124.306747,265.683533 
	C120.213928,265.384583 116.069199,265.796387 111.318428,265.889771 
	C110.899345,265.866760 110.480270,265.843750 109.687614,265.162109 
	C108.704224,265.044983 107.720894,264.826172 106.737427,264.825500 
	C78.913322,264.806427 51.089207,264.805237 23.265106,264.826080 
	C22.311300,264.826782 21.357687,265.084717 20.010746,265.279694 
	C20.010746,267.075989 20.010784,268.720886 20.010740,270.365814 
	C20.008680,348.006836 20.001163,425.647827 20.045141,503.288818 
	C20.045988,504.783417 20.653868,506.277649 21.890060,508.035889 
M1876.299316,385.833557 
	C1880.897217,380.820465 1886.092041,376.227997 1889.978271,370.713348 
	C1900.606934,355.631348 1904.383057,338.696014 1901.168091,320.484070 
	C1898.105347,303.134125 1888.774048,289.441467 1875.063721,278.730286 
	C1852.476807,261.084320 1823.428955,260.436035 1799.650391,274.328583 
	C1797.048950,275.848480 1796.307983,277.517700 1798.660522,280.289124 
	C1802.086060,284.324615 1805.442139,288.549011 1807.998291,293.153412 
	C1810.250732,297.210449 1812.121582,297.988190 1816.500244,295.943604 
	C1835.226807,287.199493 1853.058228,293.127258 1864.548950,306.205750 
	C1879.388550,323.095856 1877.387573,343.461243 1866.055420,358.398102 
	C1862.397461,363.219482 1857.923462,367.421722 1853.185425,371.874786 
	C1844.932373,376.182587 1836.673950,380.743622 1827.024414,380.501190 
	C1818.723022,380.292603 1810.300659,380.175720 1802.176392,378.685059 
	C1787.576660,376.006287 1791.120728,379.570160 1788.160400,364.901764 
	C1788.061523,364.412109 1787.984131,363.917297 1787.917114,363.422119 
	C1785.705933,347.080292 1784.180664,330.853363 1794.030273,316.013611 
	C1794.685913,315.025543 1794.298218,312.690979 1793.548462,311.530060 
	C1788.779785,304.146698 1784.488647,296.285461 1778.719116,289.747589 
	C1755.144409,263.033386 1720.906372,256.703400 1692.677124,274.249268 
	C1669.631470,288.573303 1657.079224,309.420105 1658.780273,337.248962 
	C1659.996094,357.139771 1669.744263,372.889008 1684.180908,386.609558 
	C1681.503418,389.543701 1678.797363,392.452209 1676.153320,395.416260 
	C1661.316528,412.050354 1655.837036,431.458801 1659.992554,453.251617 
	C1663.199707,470.069641 1672.329346,483.417389 1685.623657,494.224976 
	C1707.785645,512.241577 1741.879883,513.204346 1764.564941,495.972931 
	C1760.773071,490.185394 1756.767212,484.504822 1753.252930,478.534943 
	C1751.332886,475.273102 1749.695557,474.565002 1746.141846,476.350616 
	C1725.899658,486.521301 1704.706787,480.390778 1692.182739,461.237488 
	C1681.839233,445.419128 1684.334106,424.606049 1697.738892,410.710815 
	C1700.815552,407.521698 1703.992798,404.429382 1707.859985,401.177734 
	C1715.298462,398.467712 1722.642700,393.856201 1730.197021,393.481201 
	C1742.354492,392.877686 1754.664307,394.942383 1766.870239,396.249023 
	C1768.354370,396.407898 1770.440552,398.657440 1770.796387,400.260254 
	C1772.092407,406.097473 1773.010376,412.046478 1773.636230,417.999023 
	C1775.050781,431.452881 1774.663818,444.629059 1767.001709,456.611389 
	C1766.267456,457.759766 1766.683594,460.123962 1767.323364,461.593842 
	C1771.911987,472.134979 1779.028320,480.859253 1787.168701,488.868866 
	C1812.345947,513.641113 1850.756958,514.952576 1877.829956,491.878601 
	C1905.425537,468.359497 1910.420410,430.649109 1889.487671,401.698975 
	C1885.425537,396.081146 1880.275757,391.249817 1876.299316,385.833557 
M1760.000000,431.487366 
	C1760.103394,423.843445 1759.838257,416.170563 1760.435913,408.565460 
	C1760.855957,403.220245 1759.536011,401.864532 1754.357544,402.225952 
	C1745.355103,402.854248 1736.298584,402.724060 1727.264038,402.865356 
	C1723.284180,402.927582 1719.302490,402.875824 1714.989136,402.875824 
	C1714.989136,407.105225 1715.125732,410.257355 1714.949951,413.391998 
	C1714.781494,416.396606 1713.911987,418.795319 1710.083618,419.048279 
	C1699.471558,419.749542 1699.473755,419.847961 1698.997192,430.715424 
	C1698.658569,438.434448 1698.201050,446.152588 1698.114014,453.874695 
	C1698.096680,455.414581 1699.232544,457.276215 1700.410034,458.375031 
	C1700.909424,458.841125 1703.083740,458.007965 1704.158081,457.271240 
	C1707.633667,454.887939 1709.367798,456.228424 1711.076294,459.572845 
	C1711.980469,461.342651 1713.908936,463.404480 1715.677002,463.739136 
	C1718.859131,464.341461 1722.268066,463.704376 1725.583252,463.654419 
	C1733.271851,463.538574 1740.962524,463.521393 1748.648926,463.330353 
	C1750.453125,463.285553 1752.728882,463.239410 1753.872070,462.193115 
	C1754.646118,461.484680 1753.935547,459.008575 1753.683472,457.354340 
	C1753.152344,453.870239 1751.106812,449.740631 1755.713013,447.832275 
	C1759.430786,446.292023 1760.190796,443.913544 1760.025513,440.467468 
	C1759.898071,437.810791 1760.000000,435.143158 1760.000000,431.487366 
M1840.939819,358.394531 
	C1840.602661,353.713165 1842.701904,351.550201 1847.448242,351.978882 
	C1848.935181,352.113190 1850.444946,351.987213 1851.944214,351.996674 
	C1855.032959,352.016205 1855.730835,350.294434 1855.765625,347.486816 
	C1855.807373,344.115875 1856.412842,340.752960 1856.751343,337.384277 
	C1856.976074,335.147186 1857.434692,332.888977 1857.296875,330.670807 
	C1857.103516,327.559021 1856.430420,324.478668 1856.004028,321.379211 
	C1855.534790,317.968689 1855.781372,314.254395 1850.822144,313.636414 
	C1849.789185,313.507690 1848.228027,311.580139 1848.201660,310.451385 
	C1848.086914,305.541138 1845.113770,305.949707 1841.680298,306.183990 
	C1835.568848,306.601013 1829.425781,306.978607 1823.312622,306.800201 
	C1819.125977,306.678040 1810.433228,311.057343 1810.346069,315.136292 
	C1810.222046,320.947876 1807.505127,322.651764 1802.021362,322.309326 
	C1802.021362,336.378632 1801.927368,350.002075 1802.191284,363.618561 
	C1802.213501,364.767639 1804.561279,366.734009 1805.952148,366.850677 
	C1813.546509,367.487732 1821.176636,367.827698 1828.799927,367.959137 
	C1838.551025,368.127319 1838.553223,368.000000 1840.939819,358.394531 
M823.014709,486.499878 
	C823.014709,493.599701 823.014709,500.699493 823.014709,507.838501 
	C841.570068,507.838501 859.466553,507.838501 877.898438,507.838501 
	C877.898438,442.633087 877.898438,377.747284 877.898438,312.210632 
	C900.963074,312.210632 923.499207,312.210632 946.168213,312.210632 
	C946.168213,296.139130 946.168213,280.722992 946.168213,265.146484 
	C882.066284,265.146484 818.230042,265.146484 754.340332,265.146484 
	C754.340332,280.975677 754.340332,296.409119 754.340332,312.278625 
	C777.200745,312.278625 799.801758,312.278625 823.014587,312.278625 
	C823.014587,370.309692 823.014587,427.904846 823.014709,486.499878 
M1866.700073,329.842560 
	C1865.033325,329.230194 1863.366455,328.617798 1861.699707,328.005432 
	C1861.440063,330.118866 1861.180420,332.232269 1860.920654,334.345673 
	C1863.158569,334.413788 1865.396362,334.481903 1867.634277,334.549988 
	C1867.542725,333.097015 1867.451050,331.644043 1866.700073,329.842560 
z"/>
<path fill="#1718BF" opacity="1.000000" stroke="none" 
	d="
M110.061188,265.820770 
	C110.480270,265.843750 110.899345,265.866760 111.826286,266.240479 
	C113.349243,267.046265 114.336838,267.815216 115.383759,267.906921 
	C124.094543,268.670013 132.903839,268.765289 141.507431,270.153137 
	C148.593231,271.296143 155.424820,273.978973 162.395996,275.880646 
	C167.618179,277.305176 172.883179,278.572723 178.129120,279.910156 
	C178.129120,279.910156 178.025726,279.967651 178.065491,280.268921 
	C182.294327,284.126984 186.675339,287.378540 191.839600,289.433868 
	C192.894119,289.853516 194.051575,290.276306 194.852753,291.027161 
	C199.173416,295.076477 203.621765,299.025635 207.591660,303.403259 
	C211.729691,307.966217 215.497971,312.885345 219.163132,317.844421 
	C220.355286,319.457489 220.492752,321.809937 221.497223,323.609558 
	C224.113892,328.297668 227.962814,332.558533 229.472595,337.548767 
	C232.462875,347.432495 235.615265,357.258850 236.402603,367.842346 
	C237.629211,384.331177 237.756485,400.750702 234.358322,416.838440 
	C230.889511,433.260681 224.702927,448.830353 213.934265,462.131592 
	C206.849258,470.882812 199.318130,479.182861 189.158768,484.513092 
	C183.240051,487.618469 177.071106,490.267578 171.266495,493.565125 
	C161.441757,499.146454 150.584991,501.200287 139.718689,502.894653 
	C131.240417,504.216614 122.573746,504.308105 114.005196,505.101685 
	C112.949387,505.199463 111.982376,506.255981 110.508606,506.892090 
	C81.714867,506.893494 53.386742,506.871063 24.964882,506.498535 
	C23.914412,502.737793 22.142056,499.331116 22.125460,495.915863 
	C21.931526,456.007172 22.001816,416.097198 22.002043,376.187561 
	C22.002222,344.528168 21.964836,312.868683 22.047518,281.209503 
	C22.058290,277.084747 22.470453,272.924316 23.172689,268.862671 
	C23.359428,267.782623 25.679092,265.990082 26.399767,266.249054 
	C34.556389,269.180328 42.810940,266.584167 50.979286,266.823059 
	C68.793282,267.344086 86.633217,267.018463 104.462044,266.933167 
	C106.330162,266.924225 108.194885,266.208557 110.061188,265.820770 
M165.554840,440.543182 
	C165.554840,440.543182 165.564041,440.442596 166.263504,440.732025 
	C167.599701,439.883728 169.356415,439.330994 170.197266,438.134583 
	C173.368774,433.621826 176.358292,428.969330 179.199020,424.238892 
	C182.922241,418.038849 184.153412,411.242004 183.315506,403.360413 
	C183.454056,402.909332 183.592606,402.458252 184.342010,401.714600 
	C184.888260,399.165894 185.918198,396.611969 185.890778,394.069458 
	C185.805817,386.192902 185.531845,378.304626 184.941467,370.450195 
	C183.841232,355.812622 178.261108,342.843781 167.885651,332.595856 
	C160.529541,325.330139 152.780319,318.050934 141.682709,316.273315 
	C132.416321,314.789001 123.232819,312.787231 113.829567,310.674561 
	C113.545242,310.784821 113.260918,310.895081 112.107407,311.003967 
	C110.079292,310.999573 108.051170,310.995148 105.425209,310.401855 
	C97.604134,310.281281 89.783066,310.160736 81.129509,310.029785 
	C72.016289,309.861328 71.969543,309.911163 71.983124,319.470276 
	C71.988091,322.968170 71.983810,326.466095 71.198555,330.172974 
	C70.809486,330.845551 70.085716,331.515869 70.081238,332.191010 
	C70.006210,343.501495 69.972702,354.813080 70.101044,366.122498 
	C70.112160,367.102142 71.323776,368.068207 71.982269,369.968872 
	C71.980728,374.965240 71.979187,379.961639 71.193802,385.171234 
	C70.799858,386.178040 70.065712,387.183716 70.062256,388.191864 
	C69.994194,408.000305 69.978447,427.809265 70.094109,447.617279 
	C70.100815,448.765839 71.314690,449.907349 71.977089,451.829437 
	C71.970695,452.865845 71.964310,453.902252 71.302467,455.078094 
	C71.519310,456.072296 71.736153,457.066498 72.264763,458.714905 
	C73.183327,461.693878 74.239647,463.027161 78.233177,462.347717 
	C84.203690,461.331909 90.465027,461.911835 96.600029,461.998505 
	C112.314636,462.220398 127.841087,461.935791 143.142014,457.022980 
	C151.229752,454.426147 157.232437,449.335175 163.696960,444.590332 
	C164.345612,444.114227 164.223831,442.588409 164.553040,441.571381 
	C164.553040,441.571381 164.559509,441.475677 165.147934,441.579315 
	C165.251160,441.243011 165.354385,440.906738 165.554840,440.543182 
z"/>
<path fill="#69C6EF" opacity="1.000000" stroke="none" 
	d="
M1707.123657,401.292480 
	C1703.992798,404.429382 1700.815552,407.521698 1697.738892,410.710815 
	C1684.334106,424.606049 1681.839233,445.419128 1692.182739,461.237488 
	C1704.706787,480.390778 1725.899658,486.521301 1746.141846,476.350616 
	C1749.695557,474.565002 1751.332886,475.273102 1753.252930,478.534943 
	C1756.767212,484.504822 1760.773071,490.185394 1764.564941,495.972931 
	C1741.879883,513.204346 1707.785645,512.241577 1685.623657,494.224976 
	C1672.329346,483.417389 1663.199707,470.069641 1659.992554,453.251617 
	C1655.837036,431.458801 1661.316528,412.050354 1676.153320,395.416260 
	C1678.797363,392.452209 1681.503418,389.543701 1684.559326,386.390045 
	C1692.333130,391.211182 1699.728394,396.251801 1707.123657,401.292480 
z"/>
<path fill="#69C6EF" opacity="1.000000" stroke="none" 
	d="
M1853.822632,371.907166 
	C1857.923462,367.421722 1862.397461,363.219482 1866.055420,358.398102 
	C1877.387573,343.461243 1879.388550,323.095856 1864.548950,306.205750 
	C1853.058228,293.127258 1835.226807,287.199493 1816.500244,295.943604 
	C1812.121582,297.988190 1810.250732,297.210449 1807.998291,293.153412 
	C1805.442139,288.549011 1802.086060,284.324615 1798.660522,280.289124 
	C1796.307983,277.517700 1797.048950,275.848480 1799.650391,274.328583 
	C1823.428955,260.436035 1852.476807,261.084320 1875.063721,278.730286 
	C1888.774048,289.441467 1898.105347,303.134125 1901.168091,320.484070 
	C1904.383057,338.696014 1900.606934,355.631348 1889.978271,370.713348 
	C1886.092041,376.227997 1880.897217,380.820465 1875.701660,385.957764 
	C1874.766846,385.992004 1874.429810,385.902008 1873.982422,385.596008 
	C1873.640259,385.127045 1873.352661,384.994232 1872.850342,384.689087 
	C1866.853760,380.780029 1861.016235,377.163361 1854.916626,373.369415 
	C1854.449951,373.140656 1854.245361,373.089203 1853.996826,372.846313 
	C1853.778076,372.428589 1853.734619,372.179321 1853.822632,371.907166 
z"/>
<path fill="#FFFFFF" opacity="1.000000" stroke="none" 
	d="
M1760.000000,431.983887 
	C1760.000000,435.143158 1759.898071,437.810791 1760.025513,440.467468 
	C1760.190796,443.913544 1759.430786,446.292023 1755.713013,447.832275 
	C1751.106812,449.740631 1753.152344,453.870239 1753.683472,457.354340 
	C1753.935547,459.008575 1754.646118,461.484680 1753.872070,462.193115 
	C1752.728882,463.239410 1750.453125,463.285553 1748.648926,463.330353 
	C1740.962524,463.521393 1733.271851,463.538574 1725.583252,463.654419 
	C1722.268066,463.704376 1718.859131,464.341461 1715.677002,463.739136 
	C1713.908936,463.404480 1711.980469,461.342651 1711.076294,459.572845 
	C1709.367798,456.228424 1707.633667,454.887939 1704.158081,457.271240 
	C1703.083740,458.007965 1700.909424,458.841125 1700.410034,458.375031 
	C1699.232544,457.276215 1698.096680,455.414581 1698.114014,453.874695 
	C1698.201050,446.152588 1698.658569,438.434448 1698.997192,430.715424 
	C1699.473755,419.847961 1699.471558,419.749542 1710.083618,419.048279 
	C1713.911987,418.795319 1714.781494,416.396606 1714.949951,413.391998 
	C1715.125732,410.257355 1714.989136,407.105225 1714.989136,402.875824 
	C1719.302490,402.875824 1723.284180,402.927582 1727.264038,402.865356 
	C1736.298584,402.724060 1745.355103,402.854248 1754.357544,402.225952 
	C1759.536011,401.864532 1760.855957,403.220245 1760.435913,408.565460 
	C1759.838257,416.170563 1760.103394,423.843445 1760.000000,431.983887 
z"/>
<path fill="#312FA1" opacity="1.000000" stroke="none" 
	d="
M609.276611,473.511597 
	C600.205383,484.201599 589.022827,492.301422 576.308350,497.757233 
	C535.630432,515.212219 494.136200,517.643860 453.984161,497.785919 
	C410.894287,476.474976 388.107056,440.298615 386.121826,392.024902 
	C384.043732,341.493347 404.985870,302.720184 448.029114,276.247620 
	C469.673492,262.935852 493.681580,258.375702 518.886597,259.443390 
	C549.379211,260.735077 576.402405,270.980591 599.907288,290.540863 
	C602.682739,292.850555 603.580688,294.308075 601.111328,297.707336 
	C593.086914,308.753601 585.516724,320.129608 577.747559,331.361969 
	C577.010437,332.427582 576.104370,333.376312 575.289246,334.364136 
	C568.735107,329.740601 562.590881,324.915680 555.988403,320.831512 
	C523.574829,300.781036 469.630371,305.648804 448.578430,352.785828 
	C434.019440,385.384674 443.638367,426.619537 470.700104,448.029816 
	C482.670654,457.500488 496.589508,461.712402 511.637268,461.630798 
	C525.700439,461.554504 539.479187,459.402802 552.506165,453.509552 
	C556.332764,451.778442 557.911194,449.711365 557.854858,445.302979 
	C557.601501,425.475861 557.765625,405.643433 557.960571,385.529236 
	C558.141968,385.245575 558.272766,385.403015 558.225220,385.833679 
	C558.193909,407.824738 558.210205,429.385132 558.135193,451.299011 
	C556.193115,453.116455 554.556519,455.255890 552.453003,455.922638 
	C544.939697,458.304352 537.348145,460.569702 529.640381,462.182068 
	C509.926453,466.306000 491.167023,464.148956 473.869720,452.960602 
	C458.997040,443.340576 448.458252,430.733124 443.513580,413.347687 
	C439.514435,399.286530 439.139069,385.229004 441.098022,370.982025 
	C442.803009,358.581879 446.245605,346.468475 454.761810,337.119934 
	C463.129181,327.934692 471.585358,318.827881 483.873108,313.780823 
	C501.183411,306.670807 518.792236,305.242950 536.377869,309.676758 
	C548.656494,312.772583 560.751343,317.978027 569.918091,327.577637 
	C573.436829,331.262512 575.512207,329.676056 577.755493,326.519684 
	C584.165649,317.500397 590.433167,308.373230 597.084961,299.535461 
	C599.656311,296.119019 598.602417,293.079407 596.281006,291.156799 
	C590.721130,286.552216 584.694702,282.480927 578.649048,278.510223 
	C576.672180,277.211853 573.598816,277.457733 571.807617,276.022797 
	C562.926575,268.908569 551.861755,267.006989 541.524536,264.405121 
	C531.430176,261.864410 520.507324,262.330963 509.932953,262.048492 
	C494.064545,261.624634 478.759827,264.629852 464.134338,270.919556 
	C450.249939,276.890564 437.420044,284.417297 426.907471,295.513000 
	C421.927399,300.769348 416.172394,305.399841 411.824432,311.116943 
	C407.292938,317.075409 403.030487,323.627472 400.438599,330.586060 
	C395.904480,342.759186 391.451904,355.232910 389.383423,367.973267 
	C387.549408,379.269684 388.628601,391.114960 389.106598,402.689667 
	C389.592834,414.464630 393.897125,425.441589 398.007172,436.328308 
	C399.355164,439.898773 403.081818,442.701080 403.974670,446.289154 
	C406.633270,456.973419 414.954742,463.647095 421.377350,471.423004 
	C426.757172,477.936371 434.046143,483.103424 441.131744,487.922760 
	C451.517517,494.986725 462.775360,500.616943 475.028870,503.821960 
	C481.345978,505.474304 487.764862,507.649231 494.186279,507.825989 
	C516.457214,508.439117 538.862549,509.487518 560.401672,501.738739 
	C575.811401,496.195099 590.508301,489.507629 602.001038,477.237000 
	C603.812866,475.302521 606.613647,474.294189 609.053833,473.012909 
	C609.150574,473.168152 609.276611,473.511597 609.276611,473.511597 
z"/>
<path fill="#FFFFFF" opacity="1.000000" stroke="none" 
	d="
M1840.862305,358.819153 
	C1838.553223,368.000000 1838.551025,368.127319 1828.799927,367.959137 
	C1821.176636,367.827698 1813.546509,367.487732 1805.952148,366.850677 
	C1804.561279,366.734009 1802.213501,364.767639 1802.191284,363.618561 
	C1801.927368,350.002075 1802.021362,336.378632 1802.021362,322.309326 
	C1807.505127,322.651764 1810.222046,320.947876 1810.346069,315.136292 
	C1810.433228,311.057343 1819.125977,306.678040 1823.312622,306.800201 
	C1829.425781,306.978607 1835.568848,306.601013 1841.680298,306.183990 
	C1845.113770,305.949707 1848.086914,305.541138 1848.201660,310.451385 
	C1848.228027,311.580139 1849.789185,313.507690 1850.822144,313.636414 
	C1855.781372,314.254395 1855.534790,317.968689 1856.004028,321.379211 
	C1856.430420,324.478668 1857.103516,327.559021 1857.296875,330.670807 
	C1857.434692,332.888977 1856.976074,335.147186 1856.751343,337.384277 
	C1856.412842,340.752960 1855.807373,344.115875 1855.765625,347.486816 
	C1855.730835,350.294434 1855.032959,352.016205 1851.944214,351.996674 
	C1850.444946,351.987213 1848.935181,352.113190 1847.448242,351.978882 
	C1842.701904,351.550201 1840.602661,353.713165 1840.862305,358.819153 
z"/>
<path fill="#312FA1" opacity="1.000000" stroke="none" 
	d="
M1853.504028,371.890961 
	C1853.734619,372.179321 1853.778076,372.428589 1853.831055,373.150940 
	C1847.987671,378.269287 1841.577026,381.631042 1834.179688,381.886841 
	C1823.718506,382.248535 1813.220825,382.288269 1802.768555,381.813232 
	C1798.593750,381.623505 1794.374390,380.000946 1790.428833,378.404266 
	C1788.930298,377.797852 1787.505249,375.567352 1787.137329,373.844238 
	C1784.819214,362.986359 1782.792725,351.977631 1784.167725,340.875458 
	C1785.080444,333.505798 1784.266357,325.560699 1789.713989,319.156219 
	C1791.054077,317.580780 1792.305542,314.373932 1791.586914,312.892487 
	C1789.350586,308.281982 1788.071045,302.858368 1783.085693,299.946686 
	C1782.190552,299.423828 1781.699097,298.223358 1780.995239,297.356812 
	C1776.869141,292.275543 1773.396484,286.389099 1768.427856,282.339355 
	C1762.859375,277.800751 1756.281738,273.942291 1749.519165,271.556763 
	C1739.260986,267.938202 1728.836914,265.186920 1717.329224,267.716858 
	C1707.022827,269.982697 1697.495728,273.282593 1689.052612,279.403351 
	C1680.184814,285.831940 1674.031494,294.405914 1668.354370,303.884613 
	C1663.256958,312.395264 1661.952515,321.141327 1660.987549,330.359009 
	C1659.521362,344.363861 1664.965210,356.596039 1671.868164,368.024811 
	C1677.790527,377.830109 1686.421509,385.463623 1695.920654,391.912018 
	C1697.918701,393.268494 1701.385498,393.271820 1702.484131,394.983978 
	C1705.260010,399.309601 1708.017334,397.847260 1711.408936,396.365662 
	C1720.437988,392.421448 1729.714600,389.154724 1739.780029,390.080322 
	C1747.677612,390.806549 1755.522095,392.093506 1763.405640,392.994476 
	C1770.808838,393.840515 1773.196899,395.984528 1773.954468,403.528595 
	C1775.011841,414.059509 1776.589966,424.618134 1776.500732,435.152679 
	C1776.451294,440.999359 1774.434692,447.374878 1771.515259,452.490784 
	C1768.861328,457.141388 1768.528809,460.653412 1771.249146,464.811188 
	C1778.254150,475.517487 1786.118408,485.197510 1796.513672,493.169678 
	C1806.249634,500.636230 1816.923340,504.486511 1828.543579,505.829529 
	C1837.052124,506.812927 1845.523682,505.827698 1854.032227,502.878967 
	C1862.317871,500.007446 1869.027710,495.122528 1875.488892,489.943573 
	C1887.592529,480.241913 1896.583008,468.321228 1898.895264,452.215515 
	C1900.378174,441.886597 1900.861938,431.717010 1897.040283,421.869171 
	C1894.794922,416.082977 1891.990112,410.483551 1889.030640,405.020233 
	C1887.892212,402.918335 1885.533081,401.509033 1883.896484,399.638641 
	C1881.062988,396.400421 1878.275146,393.113617 1875.650513,389.706696 
	C1874.829590,388.640900 1874.595459,387.122955 1874.092773,385.812012 
	C1874.429810,385.902008 1874.766846,385.992004 1875.365723,386.068848 
	C1880.275757,391.249817 1885.425537,396.081146 1889.487671,401.698975 
	C1910.420410,430.649109 1905.425537,468.359497 1877.829956,491.878601 
	C1850.756958,514.952576 1812.345947,513.641113 1787.168701,488.868866 
	C1779.028320,480.859253 1771.911987,472.134979 1767.323364,461.593842 
	C1766.683594,460.123962 1766.267456,457.759766 1767.001709,456.611389 
	C1774.663818,444.629059 1775.050781,431.452881 1773.636230,417.999023 
	C1773.010376,412.046478 1772.092407,406.097473 1770.796387,400.260254 
	C1770.440552,398.657440 1768.354370,396.407898 1766.870239,396.249023 
	C1754.664307,394.942383 1742.354492,392.877686 1730.197021,393.481201 
	C1722.642700,393.856201 1715.298462,398.467712 1707.491821,401.235107 
	C1699.728394,396.251801 1692.333130,391.211182 1684.650757,386.039307 
	C1669.744263,372.889008 1659.996094,357.139771 1658.780273,337.248962 
	C1657.079224,309.420105 1669.631470,288.573303 1692.677124,274.249268 
	C1720.906372,256.703400 1755.144409,263.033386 1778.719116,289.747589 
	C1784.488647,296.285461 1788.779785,304.146698 1793.548462,311.530060 
	C1794.298218,312.690979 1794.685913,315.025543 1794.030273,316.013611 
	C1784.180664,330.853363 1785.705933,347.080292 1787.917114,363.422119 
	C1787.984131,363.917297 1788.061523,364.412109 1788.160400,364.901764 
	C1791.120728,379.570160 1787.576660,376.006287 1802.176392,378.685059 
	C1810.300659,380.175720 1818.723022,380.292603 1827.024414,380.501190 
	C1836.673950,380.743622 1844.932373,376.182587 1853.504028,371.890961 
z"/>
<path fill="#3C3B9D" opacity="1.000000" stroke="none" 
	d="
M823.014648,485.999939 
	C823.014587,427.904846 823.014587,370.309692 823.014587,312.278625 
	C799.801758,312.278625 777.200745,312.278625 754.340332,312.278625 
	C754.340332,296.409119 754.340332,280.975677 754.340332,265.146484 
	C818.230042,265.146484 882.066284,265.146484 946.168213,265.146484 
	C946.168213,280.722992 946.168213,296.139130 946.168213,312.210632 
	C923.499207,312.210632 900.963074,312.210632 877.898438,312.210632 
	C877.898438,377.747284 877.898438,442.633087 877.898438,507.838501 
	C859.466553,507.838501 841.570068,507.838501 823.014709,507.838501 
	C823.014709,500.699493 823.014709,493.599701 823.014648,485.999939 
M824.957703,436.500000 
	C824.956299,457.822479 824.973145,479.144989 824.933167,500.467407 
	C824.927429,503.536041 824.987183,506.126129 829.227417,506.093048 
	C843.386169,505.982574 857.547180,506.113556 871.703674,505.901337 
	C872.830078,505.884460 874.788879,504.025269 874.896423,502.884308 
	C875.517517,496.288391 875.973572,489.651459 875.984680,483.027618 
	C876.066040,434.385468 876.062256,385.743103 875.986145,337.100952 
	C875.976562,330.978729 875.499207,324.849060 875.038574,318.737946 
	C874.552734,312.292694 876.553772,310.052307 883.245483,310.049896 
	C901.736206,310.043152 920.226929,310.055176 938.717651,310.040497 
	C944.416992,310.035980 944.908142,308.588074 944.588318,302.688507 
	C944.086304,293.427856 944.143127,284.088318 944.748291,274.833527 
	C945.142212,268.808807 944.238647,266.949463 938.215942,266.949036 
	C883.410095,266.945190 828.604309,266.956757 773.798462,266.918152 
	C771.333252,266.916412 768.853577,266.577759 766.406189,266.220947 
	C760.803772,265.404175 756.649292,267.485504 756.416077,272.573975 
	C755.906189,283.699493 756.071655,294.862640 756.215515,306.007141 
	C756.256348,309.173523 758.399658,310.157928 761.667725,310.128296 
	C780.323486,309.959229 798.981506,310.038483 817.638794,310.039825 
	C824.394287,310.040283 824.966003,310.634796 824.965576,317.559204 
	C824.963135,356.872803 824.960388,396.186401 824.957703,436.500000 
z"/>
<path fill="#312FA1" opacity="1.000000" stroke="none" 
	d="
M937.543762,506.014709 
	C971.607117,427.048157 1005.692749,348.091217 1039.654419,269.080963 
	C1041.055054,265.822540 1042.679932,264.664581 1046.231201,264.715637 
	C1060.725220,264.923981 1075.225098,264.901917 1089.719849,264.720947 
	C1092.988525,264.680145 1094.748901,265.504761 1096.110962,268.671692 
	C1126.632568,339.639954 1157.281006,410.553619 1187.866821,481.494324 
	C1191.607056,490.169037 1195.126953,498.938660 1198.318359,507.435455 
	C1196.261230,507.107391 1194.634399,507.008148 1193.209961,506.654785 
	C1193.703369,505.451355 1194.501221,504.294891 1194.210327,503.583313 
	C1188.850342,490.466583 1183.454224,477.362610 1177.867676,464.340881 
	C1173.185791,453.427826 1168.159668,442.662567 1163.461792,431.756104 
	C1160.919312,425.853760 1158.748291,419.791565 1156.402832,413.804108 
	C1154.859375,409.864075 1153.515259,405.828644 1151.708008,402.012970 
	C1148.336182,394.893829 1144.381958,388.038940 1141.235840,380.827209 
	C1136.858154,370.791809 1133.124146,360.477570 1128.884277,350.379486 
	C1125.088867,341.340057 1120.981079,332.431732 1117.011230,323.465515 
	C1113.497314,315.529205 1109.980225,307.594330 1106.470581,299.656067 
	C1104.049316,294.179535 1101.617676,288.707458 1099.230347,283.216095 
	C1097.458374,279.140228 1095.622192,275.085083 1094.051270,270.931183 
	C1092.598877,267.090912 1089.393555,267.063263 1086.269287,267.134338 
	C1081.311523,267.247040 1076.358521,267.946747 1071.408081,267.901489 
	C1063.038574,267.825073 1054.667480,267.103790 1046.309082,267.265472 
	C1044.532471,267.299805 1041.974365,269.608124 1041.194946,271.464478 
	C1036.746094,282.059998 1032.924805,292.918823 1028.486816,303.519257 
	C1025.803955,309.927338 1022.157104,315.927368 1019.369202,322.297089 
	C1016.356873,329.179688 1014.077148,336.383514 1011.049011,343.258362 
	C1007.076355,352.277649 1002.553894,361.053589 998.513672,370.044617 
	C995.249390,377.309021 992.337952,384.732300 989.290100,392.093445 
	C986.480591,398.879059 983.761536,405.702942 980.881104,412.458099 
	C978.980469,416.915497 976.748657,421.232361 974.870544,425.698547 
	C971.367310,434.029083 965.719360,441.581146 965.614563,451.179932 
	C965.603455,452.202637 964.631470,453.229309 964.061157,454.228973 
	C961.733582,458.308411 959.116821,462.249054 957.109863,466.479553 
	C953.468689,474.154663 949.896362,481.888672 946.854492,489.812744 
	C944.737549,495.327423 943.554871,501.200775 941.625488,506.928833 
	C940.045288,506.634094 938.794556,506.324402 937.543762,506.014709 
z"/>
<path fill="#201FAD" opacity="1.000000" stroke="none" 
	d="
M1227.838135,507.781189 
	C1227.573975,506.572449 1227.078735,505.363800 1227.078247,504.154968 
	C1227.045898,425.673676 1227.053223,347.192413 1227.063965,268.711121 
	C1227.064209,267.725739 1227.156494,266.740326 1227.246948,264.930054 
	C1244.564453,264.930054 1261.802368,264.930054 1279.506958,265.504517 
	C1279.988892,330.046631 1280.004150,394.014282 1280.009277,457.991089 
	C1279.999268,458.000214 1279.981445,458.016602 1279.627197,457.968811 
	C1278.067993,455.277588 1276.360107,452.731384 1275.824341,449.958710 
	C1275.427734,447.906128 1276.944946,445.559418 1276.947876,443.342896 
	C1277.020386,388.049530 1277.005493,332.756042 1277.001587,277.462585 
	C1277.001465,276.131287 1277.465942,274.418549 1276.819702,273.545135 
	C1275.296875,271.487000 1273.291016,268.326935 1271.378906,268.253235 
	C1259.072998,267.778931 1246.739258,267.965179 1234.415527,268.049896 
	C1230.802368,268.074707 1229.412354,269.940094 1230.287964,273.632111 
	C1230.816040,275.858612 1230.999390,278.222717 1230.963135,280.519104 
	C1229.781250,355.340576 1233.502319,430.205292 1228.741577,505.180481 
	C1228.268066,506.169739 1228.053101,506.975464 1227.838135,507.781189 
z"/>
<path fill="#302FAB" opacity="1.000000" stroke="none" 
	d="
M1424.992676,507.754578 
	C1424.723877,506.369415 1424.220337,504.984375 1424.219727,503.599121 
	C1424.184692,425.476562 1424.190552,347.354004 1424.203735,269.231445 
	C1424.203979,267.924347 1424.344849,266.617279 1424.449951,264.789551 
	C1430.749268,264.789551 1436.882324,264.732056 1443.014038,264.801819 
	C1454.802490,264.935974 1466.590210,265.142212 1478.052368,265.674652 
	C1476.471924,266.355469 1475.217407,266.680237 1473.671631,267.297760 
	C1460.575439,267.717712 1447.770264,267.853119 1434.964966,267.968506 
	C1428.653320,268.025391 1428.144287,268.609192 1428.886597,274.729309 
	C1429.065918,276.208221 1428.963379,277.723236 1428.963501,279.221649 
	C1428.966431,350.512115 1428.968872,421.802582 1428.952393,493.093048 
	C1428.952026,494.911987 1428.890869,496.755432 1428.597900,498.544952 
	C1427.818359,503.310120 1429.098877,504.741516 1433.951172,505.105865 
	C1436.331177,505.284576 1438.653564,506.230133 1440.537598,506.869202 
	C1435.046387,507.191376 1430.019531,507.472961 1424.992676,507.754578 
z"/>
<path fill="#312FA1" opacity="1.000000" stroke="none" 
	d="
M110.974228,506.868225 
	C111.982376,506.255981 112.949387,505.199463 114.005196,505.101685 
	C122.573746,504.308105 131.240417,504.216614 139.718689,502.894653 
	C150.584991,501.200287 161.441757,499.146454 171.266495,493.565125 
	C177.071106,490.267578 183.240051,487.618469 189.158768,484.513092 
	C199.318130,479.182861 206.849258,470.882812 213.934265,462.131592 
	C224.702927,448.830353 230.889511,433.260681 234.358322,416.838440 
	C237.756485,400.750702 237.629211,384.331177 236.402603,367.842346 
	C235.615265,357.258850 232.462875,347.432495 229.472595,337.548767 
	C227.962814,332.558533 224.113892,328.297668 221.497223,323.609558 
	C220.492752,321.809937 220.355286,319.457489 219.163132,317.844421 
	C215.497971,312.885345 211.729691,307.966217 207.591660,303.403259 
	C203.621765,299.025635 199.173416,295.076477 194.852753,291.027161 
	C194.051575,290.276306 192.894119,289.853516 191.839600,289.433868 
	C186.675339,287.378540 182.294327,284.126984 178.090073,280.215149 
	C183.419128,282.652191 189.181213,284.859314 194.040833,288.330017 
	C229.783829,313.857635 240.645020,350.434082 239.296478,392.159210 
	C238.655304,411.998444 234.643448,431.082275 225.233978,448.806030 
	C214.300812,469.399750 198.197250,484.328766 177.053452,494.185638 
	C156.343521,503.840240 134.387497,507.015717 111.447067,507.687927 
	C110.987175,507.362457 110.974220,506.868225 110.974228,506.868225 
z"/>
<path fill="#312FA1" opacity="1.000000" stroke="none" 
	d="
M109.874405,265.491455 
	C108.194885,266.208557 106.330162,266.924225 104.462044,266.933167 
	C86.633217,267.018463 68.793282,267.344086 50.979286,266.823059 
	C42.810940,266.584167 34.556389,269.180328 26.399767,266.249054 
	C25.679092,265.990082 23.359428,267.782623 23.172689,268.862671 
	C22.470453,272.924316 22.058290,277.084747 22.047518,281.209503 
	C21.964836,312.868683 22.002222,344.528168 22.002043,376.187561 
	C22.001816,416.097198 21.931526,456.007172 22.125460,495.915863 
	C22.142056,499.331116 23.914412,502.737793 24.634274,506.516846 
	C23.257782,507.180817 22.118155,507.476440 20.978527,507.772064 
	C20.653868,506.277649 20.045988,504.783417 20.045141,503.288818 
	C20.001163,425.647827 20.008680,348.006836 20.010740,270.365814 
	C20.010784,268.720886 20.010746,267.075989 20.010746,265.279694 
	C21.357687,265.084717 22.311300,264.826782 23.265106,264.826080 
	C51.089207,264.805237 78.913322,264.806427 106.737427,264.825500 
	C107.720894,264.826172 108.704224,265.044983 109.874405,265.491455 
z"/>
<path fill="#312FA1" opacity="1.000000" stroke="none" 
	d="
M1142.034058,507.833405 
	C1141.305908,506.874207 1140.351196,506.013794 1139.883911,504.940948 
	C1133.246948,489.702118 1126.599731,474.466614 1120.163696,459.142639 
	C1119.083130,456.570129 1117.813110,455.675446 1115.056274,455.682129 
	C1083.776611,455.758057 1052.496582,455.748230 1021.216980,455.638641 
	C1018.274170,455.628326 1016.820496,456.635986 1015.672424,459.321472 
	C1008.755127,475.502228 1001.661316,491.607483 994.022827,507.518036 
	C991.938110,507.154633 990.457153,507.011230 989.069092,506.522095 
	C991.047119,504.876526 993.475159,503.949036 994.684448,502.185791 
	C996.324097,499.795013 996.811096,496.650085 998.174255,494.027039 
	C1004.451477,481.948608 1007.225403,468.384613 1014.367676,456.615051 
	C1016.254761,453.505371 1018.013794,452.997894 1020.989014,453.002533 
	C1048.655029,453.045441 1076.321167,453.027985 1103.987183,453.004486 
	C1105.809814,453.002960 1107.670410,453.008759 1109.447998,452.668945 
	C1117.043823,451.216766 1122.933838,455.174286 1125.154419,462.682404 
	C1127.003052,468.933807 1129.296021,475.079224 1131.782959,481.110413 
	C1135.354492,489.771942 1139.281128,498.286987 1142.844238,506.978149 
	C1142.367065,507.285828 1142.167603,507.533051 1142.034058,507.833405 
z"/>
<path fill="#3939A9" opacity="1.000000" stroke="none" 
	d="
M660.871948,265.854736 
	C661.352661,265.504181 661.832397,264.848602 662.314087,264.847137 
	C679.610229,264.794525 696.906433,264.803009 714.486694,264.803009 
	C714.695068,266.186890 715.002197,267.274200 715.002075,268.361511 
	C714.997131,343.296234 714.967529,418.230957 714.524048,493.615540 
	C713.755798,494.015503 713.403687,493.965576 713.043701,493.455750 
	C713.034119,420.406921 713.032288,347.818085 713.030701,275.229218 
	C713.030518,266.886871 711.955322,266.410217 703.706787,266.888123 
	C693.997375,267.450653 684.226990,266.871124 674.492432,267.134430 
	C670.660828,267.238068 666.854614,268.281342 663.031555,268.535461 
	C662.308167,267.401093 661.590027,266.627899 660.871948,265.854736 
z"/>
<path fill="#312FA1" opacity="1.000000" stroke="none" 
	d="
M286.245605,498.982758 
	C286.144867,497.329468 285.956299,495.676147 285.956024,494.022858 
	C285.943542,419.455872 285.946167,344.888885 285.958679,270.321899 
	C285.958954,268.698456 286.093872,267.075012 286.179596,265.144501 
	C304.215576,265.144501 321.952972,265.144501 339.528625,265.605286 
	C338.895142,266.700287 338.423401,267.334534 337.488586,267.972778 
	C327.583252,267.645905 318.142792,267.220490 308.697632,267.030823 
	C304.932007,266.955200 301.057587,268.039581 297.404785,267.477509 
	C289.470978,266.256744 287.986877,267.207092 287.985687,275.331024 
	C287.975067,349.202789 287.969757,423.074524 287.735413,497.095795 
	C287.087128,497.824463 286.666351,498.403595 286.245605,498.982758 
z"/>
<path fill="#302FAB" opacity="1.000000" stroke="none" 
	d="
M1478.745239,458.987183 
	C1480.715332,459.175415 1482.685181,459.525085 1484.655518,459.527710 
	C1514.435669,459.567230 1544.215942,459.561249 1573.996094,459.565857 
	C1575.626709,459.566101 1577.257446,459.565857 1579.562866,459.565857 
	C1579.562866,472.010437 1579.562866,484.087311 1579.192627,496.607483 
	C1578.546631,497.001556 1578.268677,496.971924 1577.698242,496.669952 
	C1577.407715,485.075409 1577.407715,473.772858 1577.407715,461.978363 
	C1574.281860,461.978363 1572.323853,461.978363 1570.365967,461.978333 
	C1541.431396,461.977814 1512.496582,462.041351 1483.563232,461.848633 
	C1481.378662,461.834076 1479.206055,459.995819 1477.314453,458.992004 
	C1477.982422,458.981506 1478.363892,458.984344 1478.745239,458.987183 
z"/>
<path fill="#1C1F8B" opacity="1.000000" stroke="none" 
	d="
M713.051514,493.915649 
	C713.403687,493.965576 713.755798,494.015503 714.374878,494.067108 
	C714.712769,496.449554 714.783813,498.830292 714.521240,501.924500 
	C714.129089,504.360413 714.070557,506.082916 714.011963,507.805389 
	C696.670898,507.877014 679.329773,507.953583 661.988647,507.990540 
	C661.577637,507.991425 661.165710,507.549042 660.836060,506.412659 
	C660.872498,505.198303 660.827087,504.884796 660.781677,504.571320 
	C660.713440,503.725769 660.645203,502.880219 660.757141,501.265930 
	C660.890381,500.187836 660.843384,499.878510 660.796448,499.569153 
	C660.708069,488.083710 660.545898,476.598297 660.543396,465.112823 
	C660.529114,399.478363 660.552734,333.843903 660.753174,267.432922 
	C660.917053,266.401306 660.891235,266.146179 660.865479,265.891083 
	C660.865479,265.891083 660.888245,265.883728 660.880127,265.869232 
	C661.590027,266.627899 662.308167,267.401093 663.012268,268.975464 
	C662.673828,272.734558 662.068237,275.692200 662.066101,278.650299 
	C662.014587,350.774200 662.009888,422.898132 662.080200,495.021973 
	C662.083618,498.578247 662.841125,502.133820 663.283691,506.005920 
	C676.870728,506.005920 689.838562,506.018707 702.806396,505.995331 
	C705.463196,505.990540 708.823364,506.789093 710.561646,505.486206 
	C712.046265,504.373474 711.650879,500.772766 712.121338,498.279022 
	C712.396851,496.818054 712.739197,495.369690 713.051514,493.915649 
z"/>
<path fill="#1C1F8B" opacity="1.000000" stroke="none" 
	d="
M1478.787842,458.523376 
	C1478.363892,458.984344 1477.982422,458.981506 1477.018066,458.706543 
	C1476.620117,453.166962 1476.961426,447.899628 1476.965820,442.632050 
	C1477.006958,392.830322 1476.990967,343.028564 1476.991455,293.226807 
	C1476.991455,286.064697 1477.173584,278.894470 1476.854858,271.746613 
	C1476.782593,270.126312 1474.972900,268.583466 1473.962769,267.004974 
	C1475.217407,266.680237 1476.471924,266.355469 1478.070801,266.022675 
	C1478.549072,267.991180 1478.799316,269.967682 1478.800049,271.944305 
	C1478.825073,333.982727 1478.825928,396.021149 1478.787842,458.523376 
z"/>
<path fill="#1C1F8B" opacity="1.000000" stroke="none" 
	d="
M337.951630,267.968750 
	C338.423401,267.334534 338.895142,266.700287 339.688660,266.018982 
	C340.010376,265.971893 340.007874,265.993652 339.960999,266.465851 
	C339.903168,345.987549 339.891449,425.037018 339.889923,504.086517 
	C339.889893,505.080872 340.019379,506.075226 340.088379,507.069580 
	C338.760895,507.404144 337.434479,508.024780 336.105774,508.029724 
	C320.026520,508.089600 303.946899,508.058685 287.351074,507.755859 
	C286.704132,507.229401 286.507599,507.094330 286.245178,507.055054 
	C286.185089,504.658447 286.125031,502.261841 286.155273,499.424011 
	C286.666351,498.403595 287.087128,497.824463 287.754822,497.551880 
	C288.014252,499.691101 287.547974,501.714569 288.180084,503.300201 
	C288.758911,504.752228 290.506012,506.740753 291.769562,506.763519 
	C305.427032,507.009857 319.091614,507.002228 332.752106,506.859253 
	C336.917358,506.815613 339.143005,505.044373 339.091766,500.064545 
	C338.831299,474.742462 339.080566,449.415680 338.951202,424.091583 
	C338.685425,372.050293 338.292328,320.009644 337.951630,267.968750 
z"/>
<path fill="#312FA1" opacity="1.000000" stroke="none" 
	d="
M340.235413,506.690552 
	C340.019379,506.075226 339.889893,505.080872 339.889923,504.086517 
	C339.891449,425.037018 339.903168,345.987549 339.966003,266.473511 
	C340.158569,266.980621 340.422394,267.952240 340.422394,268.923889 
	C340.422241,348.053101 340.401550,427.182312 340.235413,506.690552 
z"/>
<path fill="#1C1F8B" opacity="1.000000" stroke="none" 
	d="
M1280.019409,457.981934 
	C1280.004150,394.014282 1279.988892,330.046631 1279.959229,265.621490 
	C1280.168945,265.145050 1280.393066,265.126068 1280.827759,265.467529 
	C1281.038208,265.827972 1281.104736,266.033844 1281.104736,266.033844 
	C1281.218994,267.184692 1281.432983,268.335510 1281.433105,269.486359 
	C1281.436768,332.001801 1281.422485,394.517242 1281.002930,457.500427 
	C1280.403564,457.972778 1280.211426,457.977356 1280.019409,457.981934 
z"/>
<path fill="#21237C" opacity="1.000000" stroke="none" 
	d="
M1577.988647,496.961914 
	C1578.268677,496.971924 1578.546631,497.001556 1579.032227,497.052032 
	C1579.321045,499.464081 1579.399902,501.874908 1579.267334,504.922607 
	C1579.008057,505.861420 1579.070312,506.138580 1579.242798,506.390991 
	C1577.974731,506.950134 1576.707397,507.996399 1575.438477,507.998169 
	C1525.593140,508.067841 1475.747681,508.042511 1425.447510,507.892090 
	C1430.019531,507.472961 1435.046387,507.191376 1440.975098,506.908813 
	C1443.917358,506.884705 1445.957764,506.861572 1448.464600,506.885315 
	C1465.286133,506.897919 1481.641357,506.863617 1498.424561,506.859497 
	C1500.568604,506.870667 1502.284546,506.851593 1504.465942,506.880615 
	C1510.621704,506.898682 1516.312012,506.868622 1522.429932,506.866486 
	C1524.570801,506.875580 1526.283936,506.856750 1528.463745,506.884338 
	C1541.617310,506.894867 1554.304443,506.858978 1567.412354,506.853760 
	C1577.989868,505.814758 1577.989868,505.814758 1577.988647,496.961914 
z"/>
<path fill="#312FA1" opacity="1.000000" stroke="none" 
	d="
M177.994293,279.579193 
	C172.883179,278.572723 167.618179,277.305176 162.395996,275.880646 
	C155.424820,273.978973 148.593231,271.296143 141.507431,270.153137 
	C132.903839,268.765289 124.094543,268.670013 115.383759,267.906921 
	C114.336838,267.815216 113.349243,267.046265 112.141235,266.236328 
	C116.069199,265.796387 120.213928,265.384583 124.306747,265.683533 
	C140.953201,266.899384 157.076385,270.568970 172.623871,276.669556 
	C174.428513,277.377625 176.117081,278.381500 177.994293,279.579193 
z"/>
<path fill="#21237C" opacity="1.000000" stroke="none" 
	d="
M1228.309692,507.907776 
	C1228.053101,506.975464 1228.268066,506.169739 1228.741577,505.182007 
	C1229.000000,505.000000 1229.003540,504.998779 1229.091309,505.394531 
	C1231.020020,506.185547 1232.860474,506.922913 1234.702026,506.925842 
	C1276.001831,506.990936 1317.302002,507.028076 1358.601685,506.926361 
	C1366.052002,506.907990 1373.500854,506.255798 1380.962402,506.225342 
	C1380.990845,506.993103 1381.007202,507.431763 1381.023438,507.870422 
	C1364.722046,507.938232 1348.420654,508.054413 1332.119263,508.063782 
	C1297.673218,508.083588 1263.227295,508.047546 1228.309692,507.907776 
z"/>
<path fill="#3433A1" opacity="1.000000" stroke="none" 
	d="
M1381.433838,507.731873 
	C1381.007202,507.431763 1380.990845,506.993103 1380.974976,505.768555 
	C1380.978882,492.600800 1381.053955,480.217957 1380.899292,467.838043 
	C1380.879028,466.210938 1379.682495,464.598572 1379.015381,462.989075 
	C1379.000000,462.998779 1379.021973,462.970337 1378.976562,462.648285 
	C1378.269165,461.911957 1377.607056,461.497650 1376.505493,461.067993 
	C1373.717285,461.055267 1371.368408,461.057983 1368.549805,461.037537 
	C1339.718750,461.014282 1311.357544,461.014130 1282.997803,461.007996 
	C1282.999512,461.001984 1282.984741,461.011169 1283.264771,460.691711 
	C1284.677246,460.205231 1285.809692,459.892639 1286.942139,459.892395 
	C1317.706421,459.885712 1348.470581,459.911011 1379.234863,459.930969 
	C1380.188354,460.792084 1381.967407,461.648438 1381.972412,462.515015 
	C1382.059204,477.540344 1381.927856,492.566956 1381.433838,507.731873 
z"/>
<path fill="#3939A9" opacity="1.000000" stroke="none" 
	d="
M558.096191,385.154053 
	C559.197815,384.688354 560.343750,383.994080 561.493042,383.988281 
	C577.547302,383.907410 593.602051,383.913300 609.656616,383.941345 
	C610.214050,383.942322 610.770691,384.392487 611.327881,384.980774 
	C611.070435,385.491486 610.898621,385.719330 610.363037,385.998291 
	C593.008423,385.987427 576.103394,385.990112 559.089600,385.820496 
	C558.808105,385.382721 558.572083,385.300995 558.272766,385.403015 
	C558.272766,385.403015 558.141968,385.245575 558.096191,385.154053 
z"/>
<path fill="#201FAD" opacity="1.000000" stroke="none" 
	d="
M1378.828857,459.809082 
	C1348.470581,459.911011 1317.706421,459.885712 1286.942139,459.892395 
	C1285.809692,459.892639 1284.677246,460.205231 1282.895386,460.684021 
	C1281.491089,460.002747 1280.736328,459.009674 1279.981445,458.016602 
	C1279.981445,458.016602 1279.999268,458.000214 1280.009277,457.991089 
	C1280.211426,457.977356 1280.403564,457.972778 1280.883545,457.952484 
	C1283.104004,458.501129 1285.034790,459.549622 1286.969727,459.557373 
	C1317.453857,459.679657 1347.938354,459.668091 1378.828857,459.809082 
z"/>
<path fill="#1C1F8B" opacity="1.000000" stroke="none" 
	d="
M610.812683,386.011871 
	C610.898621,385.719330 611.070435,385.491486 611.513367,385.214294 
	C611.698730,385.100250 611.887878,385.078613 611.867371,385.622131 
	C611.866272,414.354858 611.885681,442.544037 611.905029,470.733215 
	C611.228638,471.565338 610.552246,472.397430 609.576233,473.370575 
	C609.276611,473.511597 609.150574,473.168152 609.071411,472.619202 
	C609.647766,468.667236 610.855286,465.266754 610.870605,461.860901 
	C610.984436,436.578491 610.861389,411.295013 610.812683,386.011871 
z"/>
<path fill="#21237C" opacity="1.000000" stroke="none" 
	d="
M21.434294,507.903992 
	C22.118155,507.476440 23.257782,507.180817 24.728016,506.866913 
	C53.386742,506.871063 81.714867,506.893494 110.508606,506.892090 
	C110.974220,506.868225 110.987175,507.362457 110.988754,507.609680 
	C81.290245,507.916565 51.590153,507.976227 21.434294,507.903992 
z"/>
<path fill="#3939A9" opacity="1.000000" stroke="none" 
	d="
M612.087036,470.394012 
	C611.885681,442.544037 611.866272,414.354858 611.877869,385.716736 
	C612.064453,385.894348 612.356262,386.520935 612.356018,387.147430 
	C612.343140,414.783203 612.304565,442.419006 612.087036,470.394012 
z"/>
<path fill="#21237C" opacity="1.000000" stroke="none" 
	d="
M988.976196,506.867798 
	C990.457153,507.011230 991.938110,507.154633 993.689514,507.547638 
	C975.583801,507.884033 957.207642,507.982300 938.831421,508.003906 
	C938.261902,508.004578 937.691467,507.211029 937.332642,506.401245 
	C938.794556,506.324402 940.045288,506.634094 942.099487,506.952271 
	C958.260620,506.929749 973.618408,506.898773 988.976196,506.867798 
z"/>
<path fill="#21237C" opacity="1.000000" stroke="none" 
	d="
M1142.490234,507.938751 
	C1142.167603,507.533051 1142.367065,507.285828 1143.307129,507.002441 
	C1160.323730,506.911713 1176.665649,506.910309 1193.007690,506.908905 
	C1194.634399,507.008148 1196.261230,507.107391 1197.980225,507.518982 
	C1179.697144,507.902283 1161.321899,507.973175 1142.490234,507.938751 
z"/>
<path fill="#FFFFFF" opacity="1.000000" stroke="none" 
	d="
M1867.029785,330.016815 
	C1867.451050,331.644043 1867.542725,333.097015 1867.634277,334.549988 
	C1865.396362,334.481903 1863.158569,334.413788 1860.920654,334.345673 
	C1861.180420,332.232269 1861.440063,330.118866 1861.699707,328.005432 
	C1863.366455,328.617798 1865.033325,329.230194 1867.029785,330.016815 
z"/>
<path fill="#3939A9" opacity="1.000000" stroke="none" 
	d="
M714.327759,507.776184 
	C714.070557,506.082916 714.129089,504.360413 714.425293,502.363525 
	C714.656494,503.975067 714.650024,505.860992 714.327759,507.776184 
z"/>
<path fill="#312FA1" opacity="1.000000" stroke="none" 
	d="
M286.166260,507.293213 
	C286.507599,507.094330 286.704132,507.229401 286.893127,507.634644 
	C286.663513,507.716461 286.375458,507.623901 286.166260,507.293213 
z"/>
<path fill="#201FAD" opacity="1.000000" stroke="none" 
	d="
M1281.230591,265.998108 
	C1281.104736,266.033844 1281.038208,265.827972 1281.047607,265.723572 
	C1281.057007,265.619171 1281.338501,265.589813 1281.338501,265.589813 
	C1281.338501,265.589813 1281.356445,265.962372 1281.230591,265.998108 
z"/>
<path fill="#302FAB" opacity="1.000000" stroke="none" 
	d="
M1579.364258,506.195679 
	C1579.070312,506.138580 1579.008057,505.861420 1579.139771,505.359619 
	C1579.476685,505.388153 1579.564209,505.668365 1579.364258,506.195679 
z"/>
<path fill="#3939A9" opacity="1.000000" stroke="none" 
	d="
M660.681091,266.025146 
	C660.891235,266.146179 660.917053,266.401306 660.852661,267.031250 
	C660.639282,267.139648 660.488525,266.881531 660.405334,266.603210 
	C660.367310,266.475647 660.462158,266.308441 660.681091,266.025146 
z"/>
<path fill="#3939A9" opacity="1.000000" stroke="none" 
	d="
M660.618530,504.777618 
	C660.827087,504.884796 660.872498,505.198303 660.830078,505.980103 
	C660.646545,505.960236 660.550964,505.472076 660.618530,504.777618 
z"/>
<path fill="#3939A9" opacity="1.000000" stroke="none" 
	d="
M660.634155,499.774231 
	C660.843384,499.878510 660.890381,500.187836 660.863281,500.962250 
	C660.683411,500.944641 660.577637,500.462006 660.634155,499.774231 
z"/>
<path fill="#FCFCFE" opacity="1.000000" stroke="none" 
	d="
M183.731155,402.007172 
	C183.592606,402.458252 183.454056,402.909332 183.169434,404.061035 
	C180.739990,418.385742 174.897964,430.268494 165.564041,440.442596 
	C165.564041,440.442596 165.554840,440.543182 165.292358,440.633545 
	C164.757339,440.902100 164.600555,441.152710 164.559509,441.475677 
	C164.559509,441.475677 164.553040,441.571381 164.204529,441.685608 
	C154.830551,449.547180 144.483994,454.568146 132.862915,457.115326 
	C113.599075,461.337646 94.092575,459.593536 74.657967,459.652863 
	C74.398178,459.653656 74.137283,459.290619 73.863167,459.087189 
	C73.863167,410.413025 73.863167,361.734680 73.863167,312.588776 
	C94.029427,312.937958 113.871559,311.134125 133.388153,315.785919 
	C162.204971,322.654449 180.007294,342.272186 183.216934,371.660065 
	C184.310715,381.675049 183.611237,391.885834 183.731155,402.007172 
z"/>
<path fill="#3433A1" opacity="1.000000" stroke="none" 
	d="
M184.036591,401.860901 
	C183.611237,391.885834 184.310715,381.675049 183.216934,371.660065 
	C180.007294,342.272186 162.204971,322.654449 133.388153,315.785919 
	C113.871559,311.134125 94.029427,312.937958 73.863167,312.588776 
	C73.863167,361.734680 73.863167,410.413025 73.863167,459.087189 
	C74.137283,459.290619 74.398178,459.653656 74.657967,459.652863 
	C94.092575,459.593536 113.599075,461.337646 132.862915,457.115326 
	C144.483994,454.568146 154.830551,449.547180 164.157806,441.674805 
	C164.223831,442.588409 164.345612,444.114227 163.696960,444.590332 
	C157.232437,449.335175 151.229752,454.426147 143.142014,457.022980 
	C127.841087,461.935791 112.314636,462.220398 96.600029,461.998505 
	C90.465027,461.911835 84.203690,461.331909 78.233177,462.347717 
	C74.239647,463.027161 73.183327,461.693878 72.129471,457.997314 
	C71.982094,456.499359 71.970001,455.719025 71.957916,454.938660 
	C71.964310,453.902252 71.970695,452.865845 71.988899,450.966614 
	C71.993019,428.388519 71.985336,406.673248 71.977654,384.958008 
	C71.979187,379.961639 71.980728,374.965240 71.993423,369.031677 
	C71.997635,355.384308 71.990692,342.674164 71.983757,329.963989 
	C71.983810,326.466095 71.988091,322.968170 71.983124,319.470276 
	C71.969543,309.911163 72.016289,309.861328 81.850212,310.323792 
	C90.388298,310.742126 98.205673,310.866425 106.023056,310.990723 
	C108.051170,310.995148 110.079292,310.999573 112.801117,311.012390 
	C113.667412,311.018738 113.840012,311.016663 114.012619,311.014618 
	C123.232819,312.787231 132.416321,314.789001 141.682709,316.273315 
	C152.780319,318.050934 160.529541,325.330139 167.885651,332.595856 
	C178.261108,342.843781 183.841232,355.812622 184.941467,370.450195 
	C185.531845,378.304626 185.805817,386.192902 185.890778,394.069458 
	C185.918198,396.611969 184.888260,399.165894 184.036591,401.860901 
z"/>
<path fill="#1D21A5" opacity="1.000000" stroke="none" 
	d="
M71.585724,385.064636 
	C71.985336,406.673248 71.993019,428.388519 71.983734,450.577942 
	C71.314690,449.907349 70.100815,448.765839 70.094109,447.617279 
	C69.978447,427.809265 69.994194,408.000305 70.062256,388.191864 
	C70.065712,387.183716 70.799858,386.178040 71.585724,385.064636 
z"/>
<path fill="#3433A1" opacity="1.000000" stroke="none" 
	d="
M165.913773,440.587311 
	C174.897964,430.268494 180.739990,418.385742 183.215347,404.416077 
	C184.153412,411.242004 182.922241,418.038849 179.199020,424.238892 
	C176.358292,428.969330 173.368774,433.621826 170.197266,438.134583 
	C169.356415,439.330994 167.599701,439.883728 165.913773,440.587311 
z"/>
<path fill="#1D21A5" opacity="1.000000" stroke="none" 
	d="
M71.591156,330.068481 
	C71.990692,342.674164 71.997635,355.384308 71.991158,368.567505 
	C71.323776,368.068207 70.112160,367.102142 70.101044,366.122498 
	C69.972702,354.813080 70.006210,343.501495 70.081238,332.191010 
	C70.085716,331.515869 70.809486,330.845551 71.591156,330.068481 
z"/>
<path fill="#1D21A5" opacity="1.000000" stroke="none" 
	d="
M105.724136,310.696289 
	C98.205673,310.866425 90.388298,310.742126 82.266449,310.328979 
	C89.783066,310.160736 97.604134,310.281281 105.724136,310.696289 
z"/>
<path fill="#1D21A5" opacity="1.000000" stroke="none" 
	d="
M71.630188,455.008362 
	C71.970001,455.719025 71.982094,456.499359 71.973595,457.670227 
	C71.736153,457.066498 71.519310,456.072296 71.630188,455.008362 
z"/>
<path fill="#1D21A5" opacity="1.000000" stroke="none" 
	d="
M113.921097,310.844604 
	C113.840012,311.016663 113.667412,311.018738 113.235710,311.013062 
	C113.260918,310.895081 113.545242,310.784821 113.921097,310.844604 
z"/>
<path fill="#3433A1" opacity="1.000000" stroke="none" 
	d="
M164.853729,441.527496 
	C164.600555,441.152710 164.757339,440.902100 165.243744,440.647156 
	C165.354385,440.906738 165.251160,441.243011 164.853729,441.527496 
z"/>
<path fill="#1818BE" opacity="1.000000" stroke="none" 
	d="
M1873.982422,385.596008 
	C1874.595459,387.122955 1874.829590,388.640900 1875.650513,389.706696 
	C1878.275146,393.113617 1881.062988,396.400421 1883.896484,399.638641 
	C1885.533081,401.509033 1887.892212,402.918335 1889.030640,405.020233 
	C1891.990112,410.483551 1894.794922,416.082977 1897.040283,421.869171 
	C1900.861938,431.717010 1900.378174,441.886597 1898.895264,452.215515 
	C1896.583008,468.321228 1887.592529,480.241913 1875.488892,489.943573 
	C1869.027710,495.122528 1862.317871,500.007446 1854.032227,502.878967 
	C1845.523682,505.827698 1837.052124,506.812927 1828.543579,505.829529 
	C1816.923340,504.486511 1806.249634,500.636230 1796.513672,493.169678 
	C1786.118408,485.197510 1778.254150,475.517487 1771.249146,464.811188 
	C1768.528809,460.653412 1768.861328,457.141388 1771.515259,452.490784 
	C1774.434692,447.374878 1776.451294,440.999359 1776.500732,435.152679 
	C1776.589966,424.618134 1775.011841,414.059509 1773.954468,403.528595 
	C1773.196899,395.984528 1770.808838,393.840515 1763.405640,392.994476 
	C1755.522095,392.093506 1747.677612,390.806549 1739.780029,390.080322 
	C1729.714600,389.154724 1720.437988,392.421448 1711.408936,396.365662 
	C1708.017334,397.847260 1705.260010,399.309601 1702.484131,394.983978 
	C1701.385498,393.271820 1697.918701,393.268494 1695.920654,391.912018 
	C1686.421509,385.463623 1677.790527,377.830109 1671.868164,368.024811 
	C1664.965210,356.596039 1659.521362,344.363861 1660.987549,330.359009 
	C1661.952515,321.141327 1663.256958,312.395264 1668.354370,303.884613 
	C1674.031494,294.405914 1680.184814,285.831940 1689.052612,279.403351 
	C1697.495728,273.282593 1707.022827,269.982697 1717.329224,267.716858 
	C1728.836914,265.186920 1739.260986,267.938202 1749.519165,271.556763 
	C1756.281738,273.942291 1762.859375,277.800751 1768.427856,282.339355 
	C1773.396484,286.389099 1776.869141,292.275543 1780.995239,297.356812 
	C1781.699097,298.223358 1782.190552,299.423828 1783.085693,299.946686 
	C1788.071045,302.858368 1789.350586,308.281982 1791.586914,312.892487 
	C1792.305542,314.373932 1791.054077,317.580780 1789.713989,319.156219 
	C1784.266357,325.560699 1785.080444,333.505798 1784.167725,340.875458 
	C1782.792725,351.977631 1784.819214,362.986359 1787.137329,373.844238 
	C1787.505249,375.567352 1788.930298,377.797852 1790.428833,378.404266 
	C1794.374390,380.000946 1798.593750,381.623505 1802.768555,381.813232 
	C1813.220825,382.288269 1823.718506,382.248535 1834.179688,381.886841 
	C1841.577026,381.631042 1847.987671,378.269287 1853.875000,373.342346 
	C1854.245361,373.089203 1854.449951,373.140656 1855.071289,373.620117 
	C1859.035278,376.720917 1862.470581,379.563782 1866.173706,381.999451 
	C1868.220581,383.345764 1870.716187,384.009857 1873.009521,384.981506 
	C1873.352661,384.994232 1873.640259,385.127045 1873.982422,385.596008 
M1847.502930,481.203125 
	C1851.379395,479.107208 1855.392334,477.226532 1859.104980,474.872192 
	C1867.838989,469.333466 1874.395386,460.867889 1876.284302,451.522552 
	C1878.061523,442.729797 1879.740479,432.473816 1874.027954,423.552185 
	C1871.149658,419.056702 1868.935547,414.092407 1865.727905,409.866241 
	C1863.492310,406.920715 1860.079590,404.868011 1857.190796,402.418915 
	C1848.550171,395.093750 1838.911255,390.418518 1827.242432,390.991821 
	C1819.295166,391.382294 1811.346069,391.791626 1803.392822,391.989685 
	C1790.235352,392.317413 1789.279297,393.022675 1786.661011,405.580719 
	C1786.627319,405.742310 1786.516968,405.892487 1786.503418,406.053101 
	C1785.672485,415.939056 1783.994141,425.854095 1784.323364,435.701935 
	C1784.543457,442.282928 1785.931641,450.104095 1789.800171,454.995148 
	C1796.190918,463.075287 1801.477295,472.463348 1811.547119,477.578888 
	C1819.314209,481.524597 1827.142090,483.859802 1835.631470,483.823090 
	C1839.345459,483.807037 1843.053345,482.353027 1847.502930,481.203125 
M1686.041260,317.851776 
	C1685.531982,325.555176 1683.967285,333.369110 1684.760254,340.936096 
	C1685.955444,352.345154 1693.053345,361.181366 1700.903198,369.094086 
	C1707.397217,375.640076 1715.305420,380.170288 1724.592407,380.954285 
	C1734.362061,381.779053 1744.217651,382.039246 1754.020386,381.828857 
	C1759.054688,381.720764 1764.094238,380.206512 1769.046875,378.984772 
	C1770.443848,378.640167 1772.204468,377.313782 1772.647217,376.038086 
	C1773.769653,372.804688 1774.665039,369.372620 1774.887695,365.970123 
	C1775.471924,357.037781 1775.595215,348.076385 1776.002930,339.131134 
	C1776.437988,329.583923 1773.171875,321.249664 1767.762817,313.634460 
	C1756.832520,298.246490 1742.801636,288.940094 1723.008179,289.914795 
	C1713.426392,290.386688 1705.338623,294.191254 1698.730225,300.318878 
	C1693.692749,304.989807 1690.284302,311.417389 1686.041260,317.851776 
z"/>
<path fill="#1D21A5" opacity="1.000000" stroke="none" 
	d="
M1872.850342,384.689087 
	C1870.716187,384.009857 1868.220581,383.345764 1866.173706,381.999451 
	C1862.470581,379.563782 1859.035278,376.720917 1855.333496,373.797394 
	C1861.016235,377.163361 1866.853760,380.780029 1872.850342,384.689087 
z"/>
<path fill="#1718BF" opacity="1.000000" stroke="none" 
	d="
M610.363037,385.998291 
	C610.861389,411.295013 610.984436,436.578491 610.870605,461.860901 
	C610.855286,465.266754 609.647766,468.667236 608.974731,472.463928 
	C606.613647,474.294189 603.812866,475.302521 602.001038,477.237000 
	C590.508301,489.507629 575.811401,496.195099 560.401672,501.738739 
	C538.862549,509.487518 516.457214,508.439117 494.186279,507.825989 
	C487.764862,507.649231 481.345978,505.474304 475.028870,503.821960 
	C462.775360,500.616943 451.517517,494.986725 441.131744,487.922760 
	C434.046143,483.103424 426.757172,477.936371 421.377350,471.423004 
	C414.954742,463.647095 406.633270,456.973419 403.974670,446.289154 
	C403.081818,442.701080 399.355164,439.898773 398.007172,436.328308 
	C393.897125,425.441589 389.592834,414.464630 389.106598,402.689667 
	C388.628601,391.114960 387.549408,379.269684 389.383423,367.973267 
	C391.451904,355.232910 395.904480,342.759186 400.438599,330.586060 
	C403.030487,323.627472 407.292938,317.075409 411.824432,311.116943 
	C416.172394,305.399841 421.927399,300.769348 426.907471,295.513000 
	C437.420044,284.417297 450.249939,276.890564 464.134338,270.919556 
	C478.759827,264.629852 494.064545,261.624634 509.932953,262.048492 
	C520.507324,262.330963 531.430176,261.864410 541.524536,264.405121 
	C551.861755,267.006989 562.926575,268.908569 571.807617,276.022797 
	C573.598816,277.457733 576.672180,277.211853 578.649048,278.510223 
	C584.694702,282.480927 590.721130,286.552216 596.281006,291.156799 
	C598.602417,293.079407 599.656311,296.119019 597.084961,299.535461 
	C590.433167,308.373230 584.165649,317.500397 577.755493,326.519684 
	C575.512207,329.676056 573.436829,331.262512 569.918091,327.577637 
	C560.751343,317.978027 548.656494,312.772583 536.377869,309.676758 
	C518.792236,305.242950 501.183411,306.670807 483.873108,313.780823 
	C471.585358,318.827881 463.129181,327.934692 454.761810,337.119934 
	C446.245605,346.468475 442.803009,358.581879 441.098022,370.982025 
	C439.139069,385.229004 439.514435,399.286530 443.513580,413.347687 
	C448.458252,430.733124 458.997040,443.340576 473.869720,452.960602 
	C491.167023,464.148956 509.926453,466.306000 529.640381,462.182068 
	C537.348145,460.569702 544.939697,458.304352 552.453003,455.922638 
	C554.556519,455.255890 556.193115,453.116455 558.329346,451.323425 
	C558.614868,450.994354 559.009399,450.993103 559.179382,450.911469 
	C559.416687,450.725220 559.565308,450.568604 559.537354,450.524841 
	C559.410217,450.325958 559.233398,450.158844 559.063110,449.513062 
	C559.100647,428.028137 559.149536,407.010498 559.198364,385.992828 
	C576.103394,385.990112 593.008423,385.987427 610.363037,385.998291 
z"/>
<path fill="#21237C" opacity="1.000000" stroke="none" 
	d="
M559.089600,385.820496 
	C559.149536,407.010498 559.100647,428.028137 559.035034,449.765564 
	C559.015259,450.654572 559.012329,450.823822 559.009399,450.993103 
	C559.009399,450.993103 558.614868,450.994354 558.420654,450.969940 
	C558.210205,429.385132 558.193909,407.824738 558.225220,385.833679 
	C558.572083,385.300995 558.808105,385.382721 559.089600,385.820496 
z"/>
<path fill="#1819BE" opacity="1.000000" stroke="none" 
	d="
M824.957764,436.000000 
	C824.960388,396.186401 824.963135,356.872803 824.965576,317.559204 
	C824.966003,310.634796 824.394287,310.040283 817.638794,310.039825 
	C798.981506,310.038483 780.323486,309.959229 761.667725,310.128296 
	C758.399658,310.157928 756.256348,309.173523 756.215515,306.007141 
	C756.071655,294.862640 755.906189,283.699493 756.416077,272.573975 
	C756.649292,267.485504 760.803772,265.404175 766.406189,266.220947 
	C768.853577,266.577759 771.333252,266.916412 773.798462,266.918152 
	C828.604309,266.956757 883.410095,266.945190 938.215942,266.949036 
	C944.238647,266.949463 945.142212,268.808807 944.748291,274.833527 
	C944.143127,284.088318 944.086304,293.427856 944.588318,302.688507 
	C944.908142,308.588074 944.416992,310.035980 938.717651,310.040497 
	C920.226929,310.055176 901.736206,310.043152 883.245483,310.049896 
	C876.553772,310.052307 874.552734,312.292694 875.038574,318.737946 
	C875.499207,324.849060 875.976562,330.978729 875.986145,337.100952 
	C876.062256,385.743103 876.066040,434.385468 875.984680,483.027618 
	C875.973572,489.651459 875.517517,496.288391 874.896423,502.884308 
	C874.788879,504.025269 872.830078,505.884460 871.703674,505.901337 
	C857.547180,506.113556 843.386169,505.982574 829.227417,506.093048 
	C824.987183,506.126129 824.927429,503.536041 824.933167,500.467407 
	C824.973145,479.144989 824.956299,457.822479 824.957764,436.000000 
z"/>
<path fill="#1818BF" opacity="1.000000" stroke="none" 
	d="
M1193.209961,506.654785 
	C1176.665649,506.910309 1160.323730,506.911713 1143.518799,506.888824 
	C1139.281128,498.286987 1135.354492,489.771942 1131.782959,481.110413 
	C1129.296021,475.079224 1127.003052,468.933807 1125.154419,462.682404 
	C1122.933838,455.174286 1117.043823,451.216766 1109.447998,452.668945 
	C1107.670410,453.008759 1105.809814,453.002960 1103.987183,453.004486 
	C1076.321167,453.027985 1048.655029,453.045441 1020.989014,453.002533 
	C1018.013794,452.997894 1016.254761,453.505371 1014.367676,456.615051 
	C1007.225403,468.384613 1004.451477,481.948608 998.174255,494.027039 
	C996.811096,496.650085 996.324097,499.795013 994.684448,502.185791 
	C993.475159,503.949036 991.047119,504.876526 989.069092,506.522095 
	C973.618408,506.898773 958.260620,506.929749 942.428833,506.937317 
	C943.554871,501.200775 944.737549,495.327423 946.854492,489.812744 
	C949.896362,481.888672 953.468689,474.154663 957.109863,466.479553 
	C959.116821,462.249054 961.733582,458.308411 964.061157,454.228973 
	C964.631470,453.229309 965.603455,452.202637 965.614563,451.179932 
	C965.719360,441.581146 971.367310,434.029083 974.870544,425.698547 
	C976.748657,421.232361 978.980469,416.915497 980.881104,412.458099 
	C983.761536,405.702942 986.480591,398.879059 989.290100,392.093445 
	C992.337952,384.732300 995.249390,377.309021 998.513672,370.044617 
	C1002.553894,361.053589 1007.076355,352.277649 1011.049011,343.258362 
	C1014.077148,336.383514 1016.356873,329.179688 1019.369202,322.297089 
	C1022.157104,315.927368 1025.803955,309.927338 1028.486816,303.519257 
	C1032.924805,292.918823 1036.746094,282.059998 1041.194946,271.464478 
	C1041.974365,269.608124 1044.532471,267.299805 1046.309082,267.265472 
	C1054.667480,267.103790 1063.038574,267.825073 1071.408081,267.901489 
	C1076.358521,267.946747 1081.311523,267.247040 1086.269287,267.134338 
	C1089.393555,267.063263 1092.598877,267.090912 1094.051270,270.931183 
	C1095.622192,275.085083 1097.458374,279.140228 1099.230347,283.216095 
	C1101.617676,288.707458 1104.049316,294.179535 1106.470581,299.656067 
	C1109.980225,307.594330 1113.497314,315.529205 1117.011230,323.465515 
	C1120.981079,332.431732 1125.088867,341.340057 1128.884277,350.379486 
	C1133.124146,360.477570 1136.858154,370.791809 1141.235840,380.827209 
	C1144.381958,388.038940 1148.336182,394.893829 1151.708008,402.012970 
	C1153.515259,405.828644 1154.859375,409.864075 1156.402832,413.804108 
	C1158.748291,419.791565 1160.919312,425.853760 1163.461792,431.756104 
	C1168.159668,442.662567 1173.185791,453.427826 1177.867676,464.340881 
	C1183.454224,477.362610 1188.850342,490.466583 1194.210327,503.583313 
	C1194.501221,504.294891 1193.703369,505.451355 1193.209961,506.654785 
M1074.916260,353.458771 
	C1072.755249,348.577759 1070.594238,343.696747 1068.042603,337.933563 
	C1057.732056,361.743195 1047.914551,384.414093 1037.883301,407.578491 
	C1058.151978,407.578491 1077.704346,407.578491 1098.040405,407.578491 
	C1090.303345,389.521545 1082.731567,371.850159 1074.916260,353.458771 
z"/>
<path fill="#1818C0" opacity="1.000000" stroke="none" 
	d="
M1279.627197,457.968811 
	C1280.736328,459.009674 1281.491089,460.002747 1282.615356,461.003510 
	C1282.984741,461.011169 1282.999512,461.001984 1283.205078,461.266357 
	C1284.814453,462.306549 1286.218262,463.082336 1286.479858,463.226868 
	C1289.242798,462.706909 1291.109497,462.055084 1292.978149,462.049591 
	C1316.422974,461.980743 1339.868164,462.027191 1363.313110,461.965149 
	C1365.216064,461.960114 1367.117554,461.375824 1369.019653,461.060669 
	C1371.368408,461.057983 1373.717285,461.055267 1376.567505,461.378510 
	C1377.719971,462.126404 1378.370972,462.548370 1379.021973,462.970337 
	C1379.021973,462.970337 1379.000000,462.998779 1379.005127,463.459778 
	C1378.953003,476.329468 1378.960083,488.739319 1378.725708,501.144592 
	C1378.705200,502.228180 1377.295654,503.812927 1376.182129,504.228149 
	C1374.388672,504.896790 1372.304321,504.973389 1370.342651,504.974823 
	C1323.229614,505.009094 1276.116577,505.000000 1229.003540,504.998779 
	C1229.003540,504.998779 1229.000000,505.000000 1229.000000,504.998474 
	C1233.502319,430.205292 1229.781250,355.340576 1230.963135,280.519104 
	C1230.999390,278.222717 1230.816040,275.858612 1230.287964,273.632111 
	C1229.412354,269.940094 1230.802368,268.074707 1234.415527,268.049896 
	C1246.739258,267.965179 1259.072998,267.778931 1271.378906,268.253235 
	C1273.291016,268.326935 1275.296875,271.487000 1276.819702,273.545135 
	C1277.465942,274.418549 1277.001465,276.131287 1277.001587,277.462585 
	C1277.005493,332.756042 1277.020386,388.049530 1276.947876,443.342896 
	C1276.944946,445.559418 1275.427734,447.906128 1275.824341,449.958710 
	C1276.360107,452.731384 1278.067993,455.277588 1279.627197,457.968811 
z"/>
<path fill="#1718BF" opacity="1.000000" stroke="none" 
	d="
M1447.998291,506.838440 
	C1445.957764,506.861572 1443.917358,506.884705 1441.439453,506.868225 
	C1438.653564,506.230133 1436.331177,505.284576 1433.951172,505.105865 
	C1429.098877,504.741516 1427.818359,503.310120 1428.597900,498.544952 
	C1428.890869,496.755432 1428.952026,494.911987 1428.952393,493.093048 
	C1428.968872,421.802582 1428.966431,350.512115 1428.963501,279.221649 
	C1428.963379,277.723236 1429.065918,276.208221 1428.886597,274.729309 
	C1428.144287,268.609192 1428.653320,268.025391 1434.964966,267.968506 
	C1447.770264,267.853119 1460.575439,267.717712 1473.671631,267.297760 
	C1474.972900,268.583466 1476.782593,270.126312 1476.854858,271.746613 
	C1477.173584,278.894470 1476.991455,286.064697 1476.991455,293.226807 
	C1476.990967,343.028564 1477.006958,392.830322 1476.965820,442.632050 
	C1476.961426,447.899628 1476.620117,453.166962 1476.731445,458.719849 
	C1479.206055,459.995819 1481.378662,461.834076 1483.563232,461.848633 
	C1512.496582,462.041351 1541.431396,461.977814 1570.365967,461.978333 
	C1572.323853,461.978363 1574.281860,461.978363 1577.407715,461.978363 
	C1577.407715,473.772858 1577.407715,485.075409 1577.698242,496.669952 
	C1577.989868,505.814758 1577.989868,505.814758 1567.302246,506.483765 
	C1566.241211,505.751556 1565.713135,505.133728 1565.181396,505.130493 
	C1553.625122,505.060333 1542.067993,505.021088 1530.512329,505.121185 
	C1529.669189,505.128510 1528.835449,506.239929 1527.997192,506.837952 
	C1526.283936,506.856750 1524.570801,506.875580 1522.318481,506.494812 
	C1516.064209,505.906036 1510.349243,505.703278 1504.632568,505.583435 
	C1504.430786,505.579224 1504.211670,506.397552 1504.000610,506.832520 
	C1502.284546,506.851593 1500.568604,506.870667 1498.313721,506.488800 
	C1497.079712,505.740692 1496.385864,505.093414 1495.689331,505.090546 
	C1480.798096,505.028870 1465.906616,505.004486 1451.016113,505.113525 
	C1450.005981,505.120880 1449.004028,506.237640 1447.998291,506.838440 
z"/>
<path fill="#1718C0" opacity="1.000000" stroke="none" 
	d="
M713.043701,493.455719 
	C712.739197,495.369690 712.396851,496.818054 712.121338,498.279022 
	C711.650879,500.772766 712.046265,504.373474 710.561646,505.486206 
	C708.823364,506.789093 705.463196,505.990540 702.806396,505.995331 
	C689.838562,506.018707 676.870728,506.005920 663.283691,506.005920 
	C662.841125,502.133820 662.083618,498.578247 662.080200,495.021973 
	C662.009888,422.898132 662.014587,350.774200 662.066101,278.650299 
	C662.068237,275.692200 662.673828,272.734558 663.017578,269.336700 
	C666.854614,268.281342 670.660828,267.238068 674.492432,267.134430 
	C684.226990,266.871124 693.997375,267.450653 703.706787,266.888123 
	C711.955322,266.410217 713.030518,266.886871 713.030701,275.229218 
	C713.032288,347.818085 713.034119,420.406921 713.043701,493.455719 
z"/>
<path fill="#1718BF" opacity="1.000000" stroke="none" 
	d="
M337.488586,267.972778 
	C338.292328,320.009644 338.685425,372.050293 338.951202,424.091583 
	C339.080566,449.415680 338.831299,474.742462 339.091766,500.064545 
	C339.143005,505.044373 336.917358,506.815613 332.752106,506.859253 
	C319.091614,507.002228 305.427032,507.009857 291.769562,506.763519 
	C290.506012,506.740753 288.758911,504.752228 288.180084,503.300201 
	C287.547974,501.714569 288.014252,499.691101 287.982361,497.402374 
	C287.969757,423.074524 287.975067,349.202789 287.985687,275.331024 
	C287.986877,267.207092 289.470978,266.256744 297.404785,267.477509 
	C301.057587,268.039581 304.932007,266.955200 308.697632,267.030823 
	C318.142792,267.220490 327.583252,267.645905 337.488586,267.972778 
z"/>
<path fill="#302FAB" opacity="1.000000" stroke="none" 
	d="
M1448.464600,506.885315 
	C1449.004028,506.237640 1450.005981,505.120880 1451.016113,505.113525 
	C1465.906616,505.004486 1480.798096,505.028870 1495.689331,505.090546 
	C1496.385864,505.093414 1497.079712,505.740692 1497.885742,506.458618 
	C1481.641357,506.863617 1465.286133,506.897919 1448.464600,506.885315 
z"/>
<path fill="#302FAB" opacity="1.000000" stroke="none" 
	d="
M1528.463745,506.884399 
	C1528.835449,506.239929 1529.669189,505.128510 1530.512329,505.121185 
	C1542.067993,505.021088 1553.625122,505.060333 1565.181396,505.130493 
	C1565.713135,505.133728 1566.241211,505.751556 1566.881226,506.453125 
	C1554.304443,506.858978 1541.617310,506.894867 1528.463745,506.884399 
z"/>
<path fill="#302FAB" opacity="1.000000" stroke="none" 
	d="
M1504.465942,506.880615 
	C1504.211670,506.397552 1504.430786,505.579224 1504.632568,505.583435 
	C1510.349243,505.703278 1516.064209,505.906036 1521.890869,506.466919 
	C1516.312012,506.868622 1510.621704,506.898682 1504.465942,506.880615 
z"/>
<path fill="#201FAD" opacity="1.000000" stroke="none" 
	d="
M1229.091309,505.394531 
	C1276.116577,505.000000 1323.229614,505.009094 1370.342651,504.974823 
	C1372.304321,504.973389 1374.388672,504.896790 1376.182129,504.228149 
	C1377.295654,503.812927 1378.705200,502.228180 1378.725708,501.144592 
	C1378.960083,488.739319 1378.953003,476.329468 1379.020508,463.450104 
	C1379.682495,464.598572 1380.879028,466.210938 1380.899292,467.838043 
	C1381.053955,480.217957 1380.978882,492.600800 1380.962891,505.439514 
	C1373.500854,506.255798 1366.052002,506.907990 1358.601685,506.926361 
	C1317.302002,507.028076 1276.001831,506.990936 1234.702026,506.925842 
	C1232.860474,506.922913 1231.020020,506.185547 1229.091309,505.394531 
z"/>
<path fill="#201FAD" opacity="1.000000" stroke="none" 
	d="
M1368.549805,461.037537 
	C1367.117554,461.375824 1365.216064,461.960114 1363.313110,461.965149 
	C1339.868164,462.027191 1316.422974,461.980743 1292.978149,462.049591 
	C1291.109497,462.055084 1289.242798,462.706909 1286.479858,463.226868 
	C1286.218262,463.082336 1284.814453,462.306549 1283.203369,461.272400 
	C1311.357544,461.014130 1339.718750,461.014282 1368.549805,461.037537 
z"/>
<path fill="#201FAD" opacity="1.000000" stroke="none" 
	d="
M1378.976562,462.648254 
	C1378.370972,462.548370 1377.719971,462.126404 1377.006958,461.393921 
	C1377.607056,461.497650 1378.269165,461.911957 1378.976562,462.648254 
z"/>
<path fill="#312FA1" opacity="1.000000" stroke="none" 
	d="
M1847.133423,481.377563 
	C1843.053345,482.353027 1839.345459,483.807037 1835.631470,483.823090 
	C1827.142090,483.859802 1819.314209,481.524597 1811.547119,477.578888 
	C1801.477295,472.463348 1796.190918,463.075287 1789.800171,454.995148 
	C1785.931641,450.104095 1784.543457,442.282928 1784.323364,435.701935 
	C1783.994141,425.854095 1785.672485,415.939056 1786.503418,406.053101 
	C1786.516968,405.892487 1786.627319,405.742310 1786.661011,405.580719 
	C1789.279297,393.022675 1790.235352,392.317413 1803.392822,391.989685 
	C1811.346069,391.791626 1819.295166,391.382294 1827.242432,390.991821 
	C1838.911255,390.418518 1848.550171,395.093750 1857.190796,402.418915 
	C1860.079590,404.868011 1863.492310,406.920715 1865.727905,409.866241 
	C1868.935547,414.092407 1871.149658,419.056702 1874.027954,423.552185 
	C1879.740479,432.473816 1878.061523,442.729797 1876.284302,451.522552 
	C1874.395386,460.867889 1867.838989,469.333466 1859.104980,474.872192 
	C1855.392334,477.226532 1851.379395,479.107208 1847.133423,481.377563 
M1872.020630,455.292999 
	C1873.016479,450.950043 1874.718506,446.634583 1874.889038,442.259430 
	C1875.739014,420.448730 1857.828979,398.450897 1835.630005,393.966766 
	C1821.304199,391.072998 1807.130005,393.427765 1793.087891,396.371338 
	C1791.829346,396.635162 1790.236450,398.683411 1790.037842,400.079163 
	C1788.681763,409.608948 1787.256836,419.159363 1786.621094,428.753967 
	C1785.702881,442.610199 1790.924438,454.384430 1800.047974,464.685303 
	C1822.298218,489.806854 1856.882446,485.667816 1872.020630,455.292999 
z"/>
<path fill="#312FA1" opacity="1.000000" stroke="none" 
	d="
M1686.096191,317.457642 
	C1690.284302,311.417389 1693.692749,304.989807 1698.730225,300.318878 
	C1705.338623,294.191254 1713.426392,290.386688 1723.008179,289.914795 
	C1742.801636,288.940094 1756.832520,298.246490 1767.762817,313.634460 
	C1773.171875,321.249664 1776.437988,329.583923 1776.002930,339.131134 
	C1775.595215,348.076385 1775.471924,357.037781 1774.887695,365.970123 
	C1774.665039,369.372620 1773.769653,372.804688 1772.647217,376.038086 
	C1772.204468,377.313782 1770.443848,378.640167 1769.046875,378.984772 
	C1764.094238,380.206512 1759.054688,381.720764 1754.020386,381.828857 
	C1744.217651,382.039246 1734.362061,381.779053 1724.592407,380.954285 
	C1715.305420,380.170288 1707.397217,375.640076 1700.903198,369.094086 
	C1693.053345,361.181366 1685.955444,352.345154 1684.760254,340.936096 
	C1683.967285,333.369110 1685.531982,325.555176 1686.096191,317.457642 
M1771.159058,324.580475 
	C1766.034912,312.955719 1758.165405,303.643768 1747.143433,297.322723 
	C1720.101929,281.814423 1685.911255,301.675201 1685.910645,332.766632 
	C1685.910278,351.172363 1698.992188,369.227539 1717.974976,377.085144 
	C1731.895752,382.847351 1746.139771,380.746338 1760.291626,378.602020 
	C1770.616943,377.037476 1770.763794,376.752441 1772.386719,366.289520 
	C1774.509766,352.603973 1776.309814,338.864258 1771.159058,324.580475 
z"/>
<path fill="#1D21A5" opacity="1.000000" stroke="none" 
	d="
M559.179382,450.911469 
	C559.012329,450.823822 559.015259,450.654572 559.046265,450.232788 
	C559.233398,450.158844 559.410217,450.325958 559.537354,450.524841 
	C559.565308,450.568604 559.416687,450.725220 559.179382,450.911469 
z"/>
<path fill="#F7F7FC" opacity="1.000000" stroke="none" 
	d="
M1075.037964,353.818787 
	C1082.731567,371.850159 1090.303345,389.521545 1098.040405,407.578491 
	C1077.704346,407.578491 1058.151978,407.578491 1037.883301,407.578491 
	C1047.914551,384.414093 1057.732056,361.743195 1068.042603,337.933563 
	C1070.594238,343.696747 1072.755249,348.577759 1075.037964,353.818787 
z"/>
<path fill="#FBFCFD" opacity="1.000000" stroke="none" 
	d="
M1871.889404,455.654724 
	C1856.882446,485.667816 1822.298218,489.806854 1800.047974,464.685303 
	C1790.924438,454.384430 1785.702881,442.610199 1786.621094,428.753967 
	C1787.256836,419.159363 1788.681763,409.608948 1790.037842,400.079163 
	C1790.236450,398.683411 1791.829346,396.635162 1793.087891,396.371338 
	C1807.130005,393.427765 1821.304199,391.072998 1835.630005,393.966766 
	C1857.828979,398.450897 1875.739014,420.448730 1874.889038,442.259430 
	C1874.718506,446.634583 1873.016479,450.950043 1871.889404,455.654724 
z"/>
<path fill="#FBFCFD" opacity="1.000000" stroke="none" 
	d="
M1771.302002,324.946350 
	C1776.309814,338.864258 1774.509766,352.603973 1772.386719,366.289520 
	C1770.763794,376.752441 1770.616943,377.037476 1760.291626,378.602020 
	C1746.139771,380.746338 1731.895752,382.847351 1717.974976,377.085144 
	C1698.992188,369.227539 1685.910278,351.172363 1685.910645,332.766632 
	C1685.911255,301.675201 1720.101929,281.814423 1747.143433,297.322723 
	C1758.165405,303.643768 1766.034912,312.955719 1771.302002,324.946350 
z"/>
</svg>