<?xml version="1.0" standalone="no"?>
<!DOCTYPE svg PUBLIC "-//W3C//DTD SVG 20010904//EN"
 "http://www.w3.org/TR/2001/REC-SVG-20010904/DTD/svg10.dtd">
<svg version="1.0" xmlns="http://www.w3.org/2000/svg"
 width="300.000000pt" height="120.000000pt" viewBox="0 0 300.000000 120.000000"
 preserveAspectRatio="xMidYMid meet">
<metadata>
Created by potrace 1.10, written by Peter Selinger 2001-2011
</metadata>
<g transform="translate(0.000000,120.000000) scale(0.100000,-0.100000)"
fill="#000000" stroke="none">
<path d="M752 790 c-55 -13 -101 -52 -129 -108 -66 -135 28 -278 182 -276 60
1 110 18 134 48 7 8 13 44 15 80 l2 66 -43 0 -43 0 0 -54 c0 -59 -8 -66 -77
-66 -111 0 -141 183 -38 226 45 19 63 18 108 -5 l37 -19 20 28 c11 15 20 31
20 34 0 11 -76 44 -115 49 -22 3 -55 2 -73 -3z"/>
<path d="M30 600 l0 -190 98 1 c134 1 186 23 222 95 13 24 20 58 20 91 0 137
-77 193 -265 193 l-75 0 0 -190z m226 79 c53 -54 36 -157 -30 -184 -20 -8 -54
-15 -76 -15 l-40 0 0 113 c0 63 2 116 5 118 2 3 29 2 60 -1 41 -4 62 -13 81
-31z m-157 -222 c0 -12 -3 -16 -6 -9 -2 6 -11 12 -19 12 -17 0 -19 17 -1 23
18 7 27 -2 26 -26z"/>
<path d="M445 600 l0 -190 43 0 42 0 0 190 0 190 -42 0 -43 0 0 -190z"/>
<path d="M1030 600 l0 -190 43 0 42 0 0 190 0 190 -42 0 -43 0 0 -190z"/>
<path d="M1180 749 l0 -40 53 2 52 3 0 -152 0 -152 42 0 43 0 0 153 0 154 55
-5 55 -4 0 41 0 41 -150 0 -150 0 0 -41z m173 -5 c9 -10 -4 -34 -19 -34 -8 0
-14 -6 -15 -12 0 -7 -4 -2 -10 10 -5 13 -7 28 -3 33 6 10 37 12 47 3z"/>
<path d="M1544 600 l-81 -190 47 0 c46 0 47 1 60 40 l13 40 83 0 82 0 16 -40
c15 -39 18 -40 62 -40 25 0 44 4 42 8 -1 5 -39 90 -82 190 l-79 182 -41 0 -41
0 -81 -190z m142 136 c8 -8 17 -30 21 -48 6 -32 6 -33 -14 -15 -24 21 -42 22
-49 2 -11 -27 -27 -16 -19 13 6 24 32 62 42 62 3 0 11 -6 19 -14z m12 -128
l21 -48 -50 0 c-28 0 -49 3 -47 8 2 4 12 29 22 55 21 53 25 52 54 -15z m-84
-66 c3 -6 -10 -19 -28 -30 -45 -27 -51 -11 -17 45 25 41 26 42 32 19 4 -14 10
-29 13 -34z m155 12 c4 3 12 -15 18 -39 l10 -45 -23 25 c-13 14 -30 25 -39 25
-20 0 -19 20 3 50 l17 25 3 -23 c2 -12 7 -20 11 -18z"/>
<path d="M1915 600 l0 -190 123 0 122 0 0 35 0 35 -80 0 -80 0 0 155 0 155
-42 0 -43 0 0 -190z"/>
<path d="M2220 600 l0 -190 125 0 125 0 0 35 0 35 -80 0 -80 0 0 155 0 155
-45 0 -45 0 0 -190z m74 -150 c-14 -14 -39 14 -29 31 5 8 12 6 23 -5 11 -11
13 -19 6 -26z"/>
<path d="M2640 768 c-61 -41 -65 -116 -9 -169 26 -24 33 -26 57 -17 16 6 41 8
57 4 27 -7 28 -9 22 -60 -4 -39 -1 -57 11 -73 44 -54 109 -58 158 -9 45 45 47
91 4 140 -30 33 -32 34 -92 29 l-61 -6 6 60 c6 56 5 61 -22 87 -40 38 -87 44
-131 14z m83 -30 c35 -18 46 -40 47 -85 l0 -43 -45 0 c-51 0 -95 32 -95 70 0
22 41 70 60 70 6 0 21 -5 33 -12z m160 -160 c49 -26 60 -70 27 -106 -46 -49
-120 -7 -120 67 0 22 5 42 13 44 22 9 58 7 80 -5z"/>
<path d="M2828 783 c-20 -5 -22 -12 -9 -31 5 -8 17 -11 34 -7 20 5 32 1 51
-19 27 -26 32 -46 17 -74 -6 -11 -4 -21 5 -29 10 -10 16 -9 28 9 54 77 -30
176 -126 151z"/>
<path d="M2600 554 c-18 -46 -11 -75 24 -110 27 -27 42 -34 74 -34 43 0 56 9
46 33 -4 11 -15 14 -38 10 -26 -4 -38 0 -55 18 -24 25 -27 59 -9 77 10 10 10
15 -2 22 -23 15 -30 12 -40 -16z"/>
</g>
</svg>
